<?xml version="1.0" encoding="utf-8"?>
<!-- Generator: Adobe Illustrator 19.0.0, SVG Export Plug-In . SVG Version: 6.00 Build 0)  -->
<svg version="1.1" xmlns="http://www.w3.org/2000/svg" xmlns:xlink="http://www.w3.org/1999/xlink" x="0px" y="0px"
	 viewBox="0 0 283.5 283.5" style="enable-background:new 0 0 283.5 283.5;" xml:space="preserve">
<style type="text/css">
	.st0{fill:#FFFFFF;stroke:#000000;stroke-linecap:round;stroke-linejoin:round;stroke-miterlimit:10;}
	.st1{fill:none;stroke:#000000;stroke-linecap:round;stroke-linejoin:round;stroke-miterlimit:10;}
</style>
<g id="Calque_2">
	<polygon id="XMLID_15_" class="st0" points="141.7,28.3 119.1,96.4 56.7,56.7 96.4,119.1 28.3,141.7 96.4,164.4 56.7,226.8 
		119.1,187.1 141.7,255.1 164.4,187.1 226.8,226.8 187.1,164.4 255.1,141.7 187.1,119.1 226.8,56.7 164.4,96.4 	"/>
</g>
<g id="Calque_1">
	<g id="XMLID_1_">
		<line id="XMLID_4_" class="st1" x1="141.7" y1="28.3" x2="113.4" y2="113.4"/>
		<line id="XMLID_5_" class="st1" x1="113.4" y1="113.4" x2="28.3" y2="141.7"/>
		<line id="XMLID_6_" class="st1" x1="56.7" y1="56.7" x2="119.1" y2="96.4"/>
		<line id="XMLID_7_" class="st1" x1="56.7" y1="56.7" x2="96.4" y2="119.1"/>
		<line id="XMLID_8_" class="st1" x1="85" y1="28.3" x2="119.1" y2="96.4"/>
		<line id="XMLID_9_" class="st1" x1="28.3" y1="85" x2="96.4" y2="119.1"/>
		<line id="XMLID_10_" class="st1" x1="141.7" y1="28.3" x2="141.7" y2="135.6"/>
		<line id="XMLID_11_" class="st1" x1="136.2" y1="141.7" x2="28.3" y2="141.7"/>
		<path id="XMLID_13_" class="st1" d="M136.1,141.7c0-3.1,2.5-5.7,5.7-5.7"/>
		<line id="XMLID_23_" class="st1" x1="28.4" y1="141.7" x2="113.5" y2="170.1"/>
		<line id="XMLID_22_" class="st1" x1="113.5" y1="170.1" x2="141.8" y2="255.1"/>
		<line id="XMLID_21_" class="st1" x1="56.8" y1="226.8" x2="96.5" y2="164.4"/>
		<line id="XMLID_20_" class="st1" x1="56.8" y1="226.8" x2="119.1" y2="187.1"/>
		<line id="XMLID_19_" class="st1" x1="28.4" y1="198.4" x2="96.5" y2="164.4"/>
		<line id="XMLID_18_" class="st1" x1="85.1" y1="255.1" x2="119.1" y2="187.1"/>
		<line id="XMLID_16_" class="st1" x1="141.8" y1="147.3" x2="141.8" y2="255.1"/>
		<path id="XMLID_14_" class="st1" d="M141.7,147.4c-3.1,0-5.7-2.5-5.7-5.7"/>
		<line id="XMLID_35_" class="st1" x1="141.7" y1="255.1" x2="170.1" y2="170.1"/>
		<line id="XMLID_34_" class="st1" x1="170.1" y1="170.1" x2="255.1" y2="141.7"/>
		<line id="XMLID_33_" class="st1" x1="226.8" y1="226.8" x2="164.4" y2="187.1"/>
		<line id="XMLID_32_" class="st1" x1="226.8" y1="226.8" x2="187.1" y2="164.4"/>
		<line id="XMLID_31_" class="st1" x1="198.4" y1="255.1" x2="164.4" y2="187.1"/>
		<line id="XMLID_30_" class="st1" x1="255.1" y1="198.4" x2="187.1" y2="164.4"/>
		<line id="XMLID_28_" class="st1" x1="147.3" y1="141.7" x2="255.1" y2="141.7"/>
		<path id="XMLID_26_" class="st1" d="M147.4,141.7c0,3.1-2.5,5.7-5.7,5.7"/>
		<line id="XMLID_47_" class="st1" x1="255.1" y1="141.7" x2="170.1" y2="113.4"/>
		<line id="XMLID_46_" class="st1" x1="141.7" y1="28.3" x2="170.1" y2="113.4"/>
		<line id="XMLID_45_" class="st1" x1="226.8" y1="56.7" x2="187.1" y2="119.1"/>
		<line id="XMLID_44_" class="st1" x1="226.8" y1="56.7" x2="164.4" y2="96.4"/>
		<line id="XMLID_43_" class="st1" x1="255.1" y1="85" x2="187.1" y2="119.1"/>
		<line id="XMLID_42_" class="st1" x1="198.4" y1="28.3" x2="164.4" y2="96.4"/>
		<path id="XMLID_38_" class="st1" d="M141.7,136.1c3.1,0,5.7,2.5,5.7,5.7"/>
	</g>
</g>
</svg>
