<?xml version="1.0"?>
<svg xmlns="http://www.w3.org/2000/svg" width="1004" height="1204">
  <g
     transform="translate(497.82589,-33.940601)">
    <g
       transform="matrix(5.4545455,0,0,5.4545455,-752.60003,-2248.7488)">
      <path
         style="fill:#000;fill-rule:evenodd;stroke-width:0.95733857"
         d="m 47.075258,418.85972 183.006592,0.35518 0.32674,100.01937 c 0,59.05188 -47.02261,106.6742 -91.48635,119.62545 C 92.638079,625.37822 47.109153,578.26853 47.109153,519.23427 Z" />
      <g
         transform="translate(0,-2.290555)">
        <g
           transform="matrix(0.82021223,0,0,0.83687029,18.020029,115.72216)">
          <path
             style="fill:#FFF"
             d="m 146.39207,456.72976 c -2.35776,1.67821 -5.98622,3.15267 -4.34375,5.125 2.04225,-1.53718 3.66755,0.20866 4.34375,1.96875 0,0.8437 0,1.68755 0,2.53125 -0.37285,0.2297 -1.05665,-0.019 -2.125,-1.15625 -3.85846,-2.4361 -10.67824,1.16598 -5.875,5.09375 3.85771,2.14849 -0.32621,-5.81267 4.96875,-3.09375 4.87574,1.91669 2.15436,15.10328 -3.875,9.34375 -4.33955,-3.40511 -12.59567,-3.79024 -13.5625,-10.5625 0.86863,-2.47475 8.35161,-2.93316 3.9375,0.0312 4.85579,3.34775 2.90648,-7.94818 -2.3125,-4.3125 -6.8582,-0.18255 -2.69135,9.14497 -6.625,12.6875 -0.88241,6.18458 5.24728,3.06008 7.375,0.25 -2.2398,1.21286 -8.51487,0.0279 -3.09375,-1.40625 5.27027,0.43012 9.61792,3.41249 13.4375,6.46875 -0.24377,2.83224 9.205,6.0451 2.28125,5.375 -3.44772,2.57834 4.7165,3.96205 2.78125,8.125 1.79665,4.59928 -3.07584,8.31109 -5.0625,2.65625 0.77346,-3.74133 -8.2236,-7.18448 -5.71875,-2.6875 7.48051,3.01516 -5.37085,1.56019 -6.03125,-2.28125 -2.82638,-3.85169 0.56394,-9.67007 2,-4.375 4.36345,-5.6258 -4.77908,-6.15436 -4.90625,0.15625 -0.14759,7.32416 6.92859,7.90453 10.78125,11.28125 2.93235,2.57009 12.70001,8.18178 5.40625,10.96875 -3.43606,0.0978 -9.3129,-6.32053 -7.75,-8.09375 5.34775,0.59287 -1.00886,-2.48795 -2.625,-2.90625 -4.14129,-2.60039 1.85081,3.88776 -0.625,5.53125 5.59109,-0.0658 -0.85014,7.81493 5.03125,5.65625 3.41366,1.92046 6.80031,6.04428 8.59375,9.3125 -2.31806,6.08295 -9.51234,-3.13496 -12.0625,-6.0625 -2.55597,-4.05186 -4.5903,-8.22931 -6.625,-12 -3.69029,-6.83882 -4.2912,-7.54929 -7.59375,-15.15625 -2.50771,-5.18961 -8.45091,-10.56058 -12.77083,-6.49256 -1.01406,0.95493 0.0216,6.26383 3.55052,6.13622 2.44318,-0.0883 -3.10876,-1.70563 -2.70528,-4.11836 0.27044,-1.61722 2.59631,-3.40044 6.21726,0.40774 2.03092,2.13593 6.567,7.63004 0.60863,6.73809 -3.68914,0.27209 -4.81439,0.57302 -11.775301,2.76637 -6.960906,2.19335 -7.758115,13.50645 -0.15625,14.96875 5.401061,0.65904 12.412811,-3.96051 10.718751,-10.03125 -1.34437,-4.80254 -11.630164,0.18085 -3.28125,-0.5 4.09367,4.05201 -3.33881,12.31614 -8.125001,7.84375 -5.677282,-2.36545 -2.355777,-8.84824 2.000001,-10.53125 4.60233,-1.36829 12.16378,-3.49434 14.71875,2.03125 0.10147,3.72155 5.2563,11.79173 -1.90625,9.625 -5.77432,0.33625 -11.15633,2.7455 -15.343751,4.84375 -3.804667,2.22552 -5.603053,-6.15088 -7.15625,-0.84375 0.436652,1.96628 4.875515,6.10714 5.125,3.1875 7.271331,0.60022 -5.642254,6.89382 -7.3125,1.59375 -1.426743,-4.59227 -1.760736,7.30766 2.8125,5.09375 2.53203,0.16472 4.935323,-3.33883 3.5625,1.3125 -1.133748,1.94621 -9.489476,0.0671 -4.78125,3.125 1.454415,8.01884 7.42285,-6.72117 8.46875,1.25 1.521251,7.66177 13.819501,6.06426 14.125001,-1.21875 2.96126,-2.13032 -2.82712,-15.01233 -2.40625,-5.5625 4.55925,6.15044 -6.22813,13.79549 -9.9375,7.03125 -3.16537,-5.1505 -1.805686,-13.374 4.65625,-14.9375 3.9131,-3.27169 10.32827,-2.31787 14.3125,0 3.17303,0.44816 5.29766,4.57505 7.46875,5.75 -2.39558,-1.45646 -9.03415,-1.9168 -3.8125,1.125 6.4791,-0.0263 7.98057,7.27002 12.1875,10 3.64511,5.95646 -7.49692,0.1445 -7.5,-3.5 -6.48678,-1.36506 -3.37687,3.41586 0.46875,4.375 -4.35971,4.53636 -8.05903,-5.05169 -6.03125,-7.96875 -2.9375,-5.90967 -8.43741,-0.37469 -5.5625,3.15625 6.92996,-0.72973 3.93736,9.18544 2.15625,9.96875 2.12601,2.99879 10.12027,0.10697 3.375,-0.1875 -2.55486,-3.93728 10.51187,-3.356 5.65625,1.3125 -3.86342,8.45944 13.029,6.50616 7.28125,1.09375 -0.51127,5.75432 -9.32652,1.4996 -4.25,-2.3125 7.01972,-2.87587 11.24837,5.19383 11.4375,10.75 0.20395,13.321 0.53735,26.66974 -0.375,39.96875 -2.55577,4.89068 -10.94464,4.75928 -10.96875,11.65625 -1.94904,2.40791 -2.54572,8.93738 -7.4375,6.1875 0.95838,-1.65283 6.43813,-2.50015 1.5625,-2.34375 -7.73893,4.12771 6.6643,6.83217 6.5,0.1875 -0.48332,-3.04099 7.13056,-7.7496 7.71875,-4.875 -4.9599,1.94721 -3.53866,9.17833 -7.78125,10.65625 -1.23902,-1.42803 2.90419,-3.04015 -0.875,-1.53125 -4.3546,4.4511 7.94861,4.73885 6.15625,-1 0.37276,-7.39506 10.67859,-6.0223 7.125,1.28125 -1.42242,4.16376 -4.2292,0.40337 -1.71875,-0.75 -5.36149,-0.15485 -0.78654,6.33064 2.125,7.09375 1.07355,2.8822 -1.47209,3.48683 1.09375,6.3125 0.38803,2.05168 0.96569,2.56528 1.46875,2.28125 0.49798,0.25598 1.05519,-0.25981 1.4375,-2.28125 2.56584,-2.82567 0.0202,-3.4303 1.09375,-6.3125 2.91154,-0.76311 7.4865,-7.2486 2.125,-7.09375 2.51046,1.15337 -0.32758,4.91376 -1.75,0.75 -3.55359,-7.30355 6.78349,-8.67631 7.15625,-1.28125 -1.79236,5.73885 10.51086,5.4511 6.15625,1 -3.77919,-1.5089 0.36402,0.10322 -0.875,1.53125 -4.24259,-1.47792 -2.82134,-8.70904 -7.78125,-10.65625 0.58819,-2.8746 8.20207,1.83401 7.71875,4.875 -0.1643,6.64467 14.23895,3.94021 6.5,-0.1875 -4.87563,-0.1564 0.60412,0.69092 1.5625,2.34375 -4.89177,2.74988 -5.48846,-3.77959 -7.4375,-6.1875 -0.0241,-6.89697 -8.41298,-6.76557 -10.96875,-11.65625 -0.91235,-13.29901 -0.57895,-26.64775 -0.375,-39.96875 0.18914,-5.55617 4.41778,-13.62587 11.4375,-10.75 5.07652,3.8121 -3.73873,8.06682 -4.25,2.3125 -5.74774,5.41241 11.14468,7.36569 7.28125,-1.09375 -4.85562,-4.6685 8.21112,-5.24978 5.65625,-1.3125 -6.74527,0.29447 1.24899,3.18629 3.375,0.1875 -1.78111,-0.78331 -4.7737,-10.69848 2.15625,-9.96875 2.87493,-3.53094 -2.62498,-9.06592 -5.5625,-3.15625 2.02778,2.91706 -1.70278,12.50511 -6.0625,7.96875 3.84562,-0.95914 6.98678,-5.74006 0.5,-4.375 -0.003,3.6445 -11.14511,9.45646 -7.5,3.5 4.20693,-2.72998 5.70841,-10.02632 12.1875,-10 5.22167,-3.0418 -1.41692,-2.58146 -3.8125,-1.125 2.17109,-1.17495 4.26448,-5.30184 7.4375,-5.75 3.98424,-2.31787 10.39942,-3.27169 14.3125,0 6.46195,1.5635 7.85288,9.787 4.6875,14.9375 -3.70936,6.76424 -14.49675,-0.88081 -9.9375,-7.03125 0.42088,-9.44983 -5.3675,3.43218 -2.40625,5.5625 0.30551,7.28301 12.60376,8.88052 14.125,1.21875 1.04591,-7.97117 7.01433,6.76884 8.46875,-1.25 4.70823,-3.0579 -3.64749,-1.17879 -4.78125,-3.125 -1.37282,-4.65133 0.99923,-1.14778 3.53125,-1.3125 4.57324,2.21391 4.27051,-9.68602 2.84375,-5.09375 -1.67023,5.30007 -14.61507,-0.99353 -7.34375,-1.59375 0.2495,2.91964 4.71961,-1.22122 5.15625,-3.1875 -1.55319,-5.30713 -3.35157,3.06927 -7.15625,0.84375 -4.18741,-2.09825 -9.56941,-4.5075 -15.34375,-4.84375 -7.16254,2.16673 -2.00771,-5.90345 -1.90625,-9.625 2.55498,-5.52559 10.11641,-3.39954 14.71875,-2.03125 4.35578,1.68301 7.64604,8.1658 1.96875,10.53125 -4.78618,4.47239 -12.21866,-3.79174 -8.125,-7.84375 8.34892,0.68085 -1.93687,-4.30254 -3.28125,0.5 -1.69405,6.07074 5.34894,10.69029 10.75,10.03125 7.60187,-1.4623 6.86784,-12.28767 -0.15625,-14.96875 -9.92826,-3.7896 -2.39315,-1.37542 -11.65625,-3.71875 -5.95836,0.89195 -1.12467,-3.11407 0.90625,-5.25 3.62094,-3.80818 5.13758,-2.76727 6.69345,-0.88393 1.60892,2.89306 -6.72779,0.51529 -0.45732,2.69983 2.00706,0.69922 2.90171,-4.1932 1.06446,-5.07483 -3.79379,-3.34959 -10.81976,1.96847 -13.42559,6.79018 -2.70871,7.19738 -3.72567,8.85034 -7.59375,15.15625 -2.08775,3.40354 -4.06903,7.94814 -6.625,12 -2.55016,2.92754 -9.77567,12.14545 -12.09375,6.0625 1.79345,-3.26822 5.1801,-7.39204 8.59375,-9.3125 5.88139,2.15868 -0.52858,-5.72206 5.0625,-5.65625 -2.4758,-1.64349 3.48505,-8.13164 -0.65625,-5.53125 -1.61614,0.4183 -7.94149,3.49912 -2.59375,2.90625 1.5629,1.77322 -4.34518,8.19158 -7.78125,8.09375 -7.29375,-2.78697 2.50515,-8.39866 5.4375,-10.96875 3.85266,-3.37672 10.92884,-3.95709 10.78125,-11.28125 -0.12717,-6.31061 -9.2697,-5.78205 -4.90625,-0.15625 1.43606,-5.29507 4.82638,0.52331 2,4.375 -0.66039,3.84144 -13.51175,5.29641 -6.03125,2.28125 2.50486,-4.49698 -6.49221,-1.05383 -5.71875,2.6875 -1.98666,5.65484 -6.85915,1.94303 -5.0625,-2.65625 -1.93524,-4.16295 6.22898,-5.54666 2.78125,-8.125 -6.92375,0.6701 2.49377,-2.54276 2.25,-5.375 3.81958,-3.05626 8.19849,-6.03863 13.46875,-6.46875 5.42112,1.43412 -0.88518,2.61911 -3.125,1.40625 2.12772,2.81008 8.28867,5.93458 7.40625,-0.25 -3.93363,-3.54253 0.2332,-12.87005 -6.625,-12.6875 -5.21898,-3.63568 -7.16827,7.66025 -2.3125,4.3125 -4.41411,-2.96441 3.06888,-2.506 3.9375,-0.0312 -0.96683,6.77226 -9.22295,7.15739 -13.5625,10.5625 -6.02935,5.75953 -8.75074,-7.42706 -3.875,-9.34375 5.29497,-2.71892 1.07981,5.24224 4.9375,3.09375 4.80324,-3.92777 -1.98529,-7.52985 -5.84375,-5.09375 -1.1024,1.17346 -1.79215,1.39397 -2.15625,1.125 0,-0.81245 0,-1.62505 0,-2.4375 0.66126,-1.78044 2.3089,-3.58638 4.375,-2.03125 1.65115,-1.98274 -2.01849,-3.46701 -4.375,-5.15625 -0.39517,-0.86786 -0.67314,-2.69082 -1.5625,0.0312 z m -27.58333,39.21577 c 3.76223,0.79153 1.2814,9.46455 0.0312,2.875 -0.18084,-0.83169 -0.95732,-2.2581 -0.0312,-2.875 z m 56.49107,0.53572 c 0.92608,0.6169 0.16114,2.0393 0,2.875 -1.26985,6.58554 -3.76223,-2.08347 0,-2.875 z"/>
        </g>
        <g
           style="display:inline;fill:#FFF;stroke:#000;stroke-width:0.1555692"
           transform="matrix(0.51793199,0,0,0.51793199,62.557364,239.10082)">
          <path
             d="m 165.95645,476.57476 c -4.33102,2.33653 -12.84563,2.58335 -19.39793,2.58335 -6.81746,0 -16.03919,-0.78146 -18.42566,-2.50697 1.34796,-2.01748 8.24944,-4.41641 18.42566,-4.41641 10.17622,0 17.09984,2.46177 19.39793,4.34003 z"
             style="fill:#FFF;fill-rule:evenodd;stroke:#000;stroke-width:0.1555692;stroke-linecap:butt;stroke-linejoin:miter" />
          <g
             style="fill:#FFF;stroke:#000;stroke-width:0.1555692"
             transform="translate(-0.10341)">
            <path
               style="color:#000;fill:#FFF;fill-rule:nonzero;stroke:#000;stroke-width:0.1555692;stroke-linecap:square;stroke-linejoin:round;stroke-miterlimit:4;"
               d="m 147.19716,469.00309 -0.80513,-4.56139 -1.63629,0.51438 0.50162,-1.64024 -1.52075,-0.79331 1.51452,-0.80513 -0.51438,-1.63628 1.64025,0.50161 0.7933,-4.73949 0.80513,4.73326 1.63628,-0.51438 -0.50161,1.64025 1.52075,0.7933 -1.51452,0.80514 0.51438,1.63627 -1.64024,-0.50161 z" />
            <path
               style="color:#000;fill:#FFF;fill-rule:nonzero;stroke:#000;stroke-width:0.1555692;stroke-linecap:round;stroke-linejoin:miter;stroke-miterlimit:4;"
               d="m 161.8607,463.64685 c -0.11572,0.30721 -0.85207,1.26554 -1.02299,1.47727 v 0 c -1.91321,0.25808 -3.34681,-0.61801 -3.79157,-0.84122 -1.35239,2.04667 -2.656,2.44941 -3.9501,2.53176 -0.84459,0.70103 -1.4677,1.42759 -1.29921,2.24534 5.31807,0.22678 10.15218,1.45723 14.50787,3.67987 -0.91026,-2.18738 -0.36195,-4.32934 -0.1205,-6.69482 0.10238,-1.00301 1.19304,-1.62739 1.18361,-2.6775 0.0196,-0.22213 0.41482,-2.29381 0.40722,-2.51561 -1.51356,0.28351 -3.86955,1.79006 -5.91433,2.79491 z" />
            <path
               d="m 157.53501,452.09518 c -1.28072,1.19627 -1.29142,2.26567 -2.7008,3.82178 -0.1778,0.30023 -0.24907,0.81588 -0.33069,1.44854 l -0.77042,7.89247 c 1.60765,0.19397 2.3424,-2.71471 3.17585,-3.80462 0.98335,-2.05718 0.76943,-6.25226 0.62606,-9.35817 z"
               style="color:#000;fill:#FFF;fill-rule:nonzero;stroke:#000;stroke-width:0.1555692;stroke-linecap:butt;stroke-linejoin:miter;stroke-miterlimit:4;" />
            <path
               d="m 156.08424,446.96778 c 0.46425,0.4315 1.39198,2.21504 0.63797,3.48411 -0.94478,1.14421 -2.00071,3.27829 -2.85812,5.00566 -0.8975,-1.26376 -0.31213,-2.84683 0.69556,-4.46117 0.79779,-1.27808 1.20367,-2.77176 1.52459,-4.0286 z"
               style="color:#000;fill:#FFF;fill-rule:nonzero;stroke:#000;stroke-width:0.1555692;stroke-linecap:round;stroke-linejoin:miter;stroke-miterlimit:4;" />
            <path
               d="m 154.64788,442.57976 c -0.056,0.0836 -0.0728,0.17835 -0.11383,0.26877 -0.63523,1.40052 -0.59519,2.68908 -1.3117,3.90617 -0.59017,1.00247 -1.14659,1.58921 -1.37139,3.05615 -0.20595,1.09029 -0.0318,2.55368 0.4872,2.93922 -0.12108,-1.52808 0.96197,-3.03277 1.78641,-4.12426 1.08138,-1.98884 1.69643,-4.66061 0.92136,-5.72061 -0.10193,-0.13939 -0.15121,-0.23143 -0.39805,-0.32544 z"
               style="color:#000;fill:#FFF;fill-rule:nonzero;stroke:#000;stroke-width:0.1555692;stroke-linecap:butt;stroke-linejoin:miter;stroke-miterlimit:4;" />
            <path
               d="m 151.56739,437.61801 c 0,0 0.18708,2.27255 0.0255,3.39591 -0.28832,2.0045 -1.76081,5.86565 -1.76081,5.86565 -0.34989,1.4996 -0.0327,2.45477 0.84212,2.95488 l 0.1276,-1.58769 c 0.51378,-2.56668 2.62671,-4.19929 2.85812,-7.12259 -0.0493,-1.20041 -0.77405,-2.33826 -1.40354,-3.59437 -0.34353,-0.42978 -0.549,-0.30282 -0.68899,0.0882 z"
               style="color:#000;fill:#FFF;fill-rule:nonzero;stroke:#000;stroke-width:0.1555692;stroke-linecap:butt;stroke-linejoin:miter;stroke-miterlimit:4;" />
            <path
               d="m 147.8161,432.48003 c -0.13114,1.00629 -0.28356,2.02231 -0.23531,3.04371 0.11111,2.3522 0.46867,4.73603 0.21564,7.51828 -0.11973,1.31645 0.13142,2.63709 0.14727,3.94781 0.0131,0.38342 0.19321,0.5449 0.35726,0.72769 0.18647,-1.13773 0.21707,-2.24853 0.71453,-3.44001 0.64086,-1.04134 0.8814,-1.80596 1.19939,-2.62411 0.34779,-4.58772 -0.16753,-6.63086 -0.96972,-7.82823 l -0.25519,0.0441 c -0.95297,-1.28816 -0.82414,-0.98718 -1.17387,-1.38921 z"
               style="color:#000;fill:#FFF;fill-rule:nonzero;stroke:#000;stroke-width:0.1555692;stroke-linecap:butt;stroke-linejoin:miter;stroke-miterlimit:4;" />
            <path
               d="m 148.33375,450.20219 0.18122,5.75071 c 3.94518,1.26499 3.38117,9.38228 0.92808,12.14409 -0.11126,0.50614 0.15102,0.66619 0.7513,0.49645 1.70004,-1.47783 2.95738,-3.8164 2.78423,-8.93621 -0.19702,-2.19684 -0.62377,-5.73067 -4.64483,-9.45504 z"
               style="color:#000;fill:#FFF;fill-rule:nonzero;stroke:#000;stroke-width:0.1555692;stroke-linecap:butt;stroke-linejoin:miter;stroke-miterlimit:4;" />
            <path
               style="color:#000;fill:#FFF;fill-rule:nonzero;stroke:#000;stroke-width:0.1555692;stroke-linecap:round;stroke-linejoin:miter;stroke-miterlimit:4;"
               d="m 169.20332,456.47354 c 0.10721,0.58185 -0.36639,3.0496 -1.81088,3.74028 -1.52237,0.49514 -3.77539,1.75868 -5.60129,2.78011 0.0698,-1.48152 1.79546,-3.0272 3.67325,-3.88242 1.48665,-0.67708 2.66192,-1.7489 3.73892,-2.63797 z" />
            <path
               style="color:#000;fill:#FFF;fill-rule:nonzero;stroke:#000;stroke-width:0.1555692;stroke-linecap:butt;stroke-linejoin:miter;stroke-miterlimit:4;"
               d="m 169.65658,453.75022 c -0.0975,0.0473 -0.19669,0.0989 -0.25645,0.18113 -0.96631,1.33028 -2.41057,1.67347 -3.74487,2.40508 -1.09903,0.60262 -1.61131,0.59235 -2.66991,1.75549 -1.07023,0.85415 -1.53349,2.81199 -1.31433,3.3915 0.79707,-1.36806 2.61635,-2.75277 3.96943,-3.3288 2.1034,-1.23493 4.20836,-2.69575 4.16668,-3.94908 -0.006,-0.16481 0.006,-0.26571 -0.15055,-0.45532 z" />
            <path
               style="color:#000;fill:#FFF;fill-rule:nonzero;stroke:#000;stroke-width:0.1555692;stroke-linecap:butt;stroke-linejoin:miter;stroke-miterlimit:4;"
               d="m 170.26358,448.93835 c 0,0 -1.3102,1.97709 -2.1688,2.83204 -1.53208,1.52559 -5.24475,4.0226 -5.24475,4.0226 -1.25759,1.07669 -1.61019,2.02254 -1.20631,2.85907 l 1.12983,-1.25689 c 2.08183,-1.88381 4.88912,-2.22198 6.96647,-4.53788 0.73319,-1.02048 0.86518,-2.31428 1.15254,-3.6604 -0.008,-0.52229 -0.26057,-0.5158 -0.62898,-0.25854 z" />
            <path
               style="color:#000;fill:#FFF;fill-rule:nonzero;stroke:#000;stroke-width:0.1555692;stroke-linecap:butt;stroke-linejoin:miter;stroke-miterlimit:4;"
               d="m 170.76954,442.70286 c -0.72138,0.79805 -1.46678,1.59477 -2.04447,2.48685 -1.33038,2.05438 -2.46993,4.2472 -4.3711,6.50326 -0.89957,1.06748 -1.48567,2.3063 -2.26625,3.43023 -0.22112,0.3326 -0.1655,0.55166 -0.13646,0.78162 0.84815,-0.88502 1.67218,-1.57456 2.81786,-2.36467 1.17692,-0.59734 2.75095,-2.20425 3.74806,-3.55648 1.23306,-1.67222 2.61309,-4.10518 2.65502,-5.48826 l 0.01,-0.53612 c -0.0316,-1.52865 -0.24775,-1.23302 -0.41262,-1.25641 z" />
            <path
               d="m 132.53362,463.64685 c 0.11572,0.30721 0.85207,1.26554 1.02299,1.47727 v 0 c 1.91321,0.25808 3.34681,-0.61801 3.79157,-0.84122 1.35239,2.04667 2.656,2.44941 3.9501,2.53176 0.84459,0.70103 1.4677,1.42759 1.29921,2.24534 -5.31807,0.22678 -10.15218,1.45723 -14.50787,3.67987 0.91026,-2.18738 0.36195,-4.32934 0.1205,-6.69482 -0.10238,-1.00301 -1.19304,-1.62739 -1.18361,-2.6775 -0.0196,-0.22213 -0.41482,-2.29381 -0.40722,-2.51561 1.51356,0.28351 3.86955,1.79006 5.91433,2.79491 z"
               style="color:#000;fill:#FFF;fill-rule:nonzero;stroke:#000;stroke-width:0.1555692;stroke-linecap:round;stroke-linejoin:miter;stroke-miterlimit:4;stroke-dasharray:none;stroke-dashoffset:0;marker:none;paint-order:markers stroke fill;color-rendering:auto;image-rendering:auto;shape-rendering:auto;text-rendering:auto;enable-background:accumulate" />
            <path
               style="color:#000;fill:#FFF;fill-rule:nonzero;stroke:#000;stroke-width:0.1555692;stroke-linecap:butt;stroke-linejoin:miter;stroke-miterlimit:4;"
               d="m 136.85931,452.09518 c 1.28072,1.19627 1.29142,2.26567 2.7008,3.82178 0.1778,0.30023 0.24907,0.81588 0.33069,1.44854 l 0.77042,7.89247 c -1.60765,0.19397 -2.3424,-2.71471 -3.17585,-3.80462 -0.98335,-2.05718 -0.76943,-6.25226 -0.62606,-9.35817 z" />
            <path
               style="color:#000;fill:#FFF;fill-rule:nonzero;stroke:#000;stroke-width:0.1555692;stroke-linecap:round;stroke-linejoin:miter;stroke-miterlimit:4;stroke-dasharray:none;stroke-dashoffset:0;marker:none;paint-order:markers stroke fill;color-rendering:auto;image-rendering:auto;shape-rendering:auto;text-rendering:auto;enable-background:accumulate"
               d="m 138.31008,446.96778 c -0.46425,0.4315 -1.39198,2.21504 -0.63797,3.48411 0.94478,1.14421 2.00071,3.27829 2.85812,5.00566 0.8975,-1.26376 0.31213,-2.84683 -0.69556,-4.46117 -0.79779,-1.27808 -1.20367,-2.77176 -1.52459,-4.0286 z" />
            <path
               style="color:#000;fill:#FFF;fill-rule:nonzero;stroke:#000;stroke-width:0.1555692;stroke-linecap:butt;stroke-linejoin:miter;stroke-miterlimit:4;"
               d="m 139.74644,442.57976 c 0.056,0.0836 0.0728,0.17835 0.11383,0.26877 0.63523,1.40052 0.59519,2.68908 1.3117,3.90617 0.59017,1.00247 1.14659,1.58921 1.37139,3.05615 0.20595,1.09029 0.0318,2.55368 -0.4872,2.93922 0.12108,-1.52808 -0.96197,-3.03277 -1.78641,-4.12426 -1.08138,-1.98884 -1.69643,-4.66061 -0.92136,-5.72061 0.10193,-0.13939 0.15121,-0.23143 0.39805,-0.32544 z" />
            <path
               style="color:#000;fill:#FFF;fill-rule:nonzero;stroke:#000;stroke-width:0.1555692;stroke-linecap:butt;stroke-linejoin:miter;stroke-miterlimit:4;"
               d="m 142.82693,437.61801 c 0,0 -0.18708,2.27255 -0.0255,3.39591 0.28832,2.0045 1.76081,5.86565 1.76081,5.86565 0.34989,1.4996 0.0327,2.45477 -0.84212,2.95488 l -0.1276,-1.58769 c -0.51378,-2.56668 -2.62671,-4.19929 -2.85812,-7.12259 0.0493,-1.20041 0.77405,-2.33826 1.40354,-3.59437 0.34353,-0.42978 0.549,-0.30282 0.68899,0.0882 z" />
            <path
               style="color:#000;fill:#FFF;fill-rule:nonzero;stroke:#000;stroke-width:0.1555692;stroke-linecap:butt;stroke-linejoin:miter;stroke-miterlimit:4;"
               d="m 146.57822,432.48003 c 0.13114,1.00629 0.28356,2.02231 0.23531,3.04371 -0.11111,2.3522 -0.46867,4.73603 -0.21564,7.51828 0.11973,1.31645 -0.13142,2.63709 -0.14727,3.94781 -0.0131,0.38342 -0.19321,0.5449 -0.35726,0.72769 -0.18647,-1.13773 -0.21707,-2.24853 -0.71453,-3.44001 -0.64086,-1.04134 -0.8814,-1.80596 -1.19939,-2.62411 -0.34779,-4.58772 0.16753,-6.63086 0.96972,-7.82823 l 0.25519,0.0441 c 0.95297,-1.28816 0.82414,-0.98718 1.17387,-1.38921 z" />
            <path
               style="color:#000;fill:#FFF;fill-rule:nonzero;stroke:#000;stroke-width:0.1555692;stroke-linecap:butt;stroke-linejoin:miter;stroke-miterlimit:4;"
               d="m 146.06057,450.20219 -0.18122,5.75071 c -3.94518,1.26499 -3.38117,9.38228 -0.92808,12.14409 0.11126,0.50614 -0.15102,0.66619 -0.7513,0.49645 -1.70004,-1.47783 -2.95738,-3.8164 -2.78423,-8.93621 0.19702,-2.19684 0.62377,-5.73067 4.64483,-9.45504 z" />
            <path
               d="m 125.191,456.47354 c -0.10721,0.58185 0.36639,3.0496 1.81088,3.74028 1.52237,0.49514 3.77539,1.75868 5.60129,2.78011 -0.0698,-1.48152 -1.79546,-3.0272 -3.67325,-3.88242 -1.48665,-0.67708 -2.66192,-1.7489 -3.73892,-2.63797 z"
               style="color:#000;fill:#FFF;fill-rule:nonzero;stroke:#000;stroke-width:0.1555692;stroke-linecap:round;stroke-linejoin:miter;stroke-miterlimit:4;" />
            <path
               d="m 124.73774,453.75022 c 0.0975,0.0473 0.19669,0.0989 0.25645,0.18113 0.96631,1.33028 2.41057,1.67347 3.74487,2.40508 1.09903,0.60262 1.61131,0.59235 2.66991,1.75549 1.07023,0.85415 1.53349,2.81199 1.31433,3.3915 -0.79707,-1.36806 -2.61635,-2.75277 -3.96943,-3.3288 -2.1034,-1.23493 -4.20836,-2.69575 -4.16668,-3.94908 0.006,-0.16481 -0.006,-0.26571 0.15055,-0.45532 z"
               style="color:#000;fill:#FFF;fill-rule:nonzero;stroke:#000;stroke-width:0.1555692;stroke-linecap:butt;stroke-linejoin:miter;stroke-miterlimit:4;" />
            <path
               d="m 124.13074,448.93835 c 0,0 1.3102,1.97709 2.1688,2.83204 1.53208,1.52559 5.24475,4.0226 5.24475,4.0226 1.25759,1.07669 1.61019,2.02254 1.20631,2.85907 l -1.12983,-1.25689 c -2.08183,-1.88381 -4.88912,-2.22198 -6.96647,-4.53788 -0.73319,-1.02048 -0.86518,-2.31428 -1.15254,-3.6604 0.008,-0.52229 0.26057,-0.5158 0.62898,-0.25854 z"
               style="color:#000;fill:#FFF;fill-rule:nonzero;stroke:#000;stroke-width:0.1555692;stroke-linecap:butt;stroke-linejoin:miter;stroke-miterlimit:4;" />
            <path
               d="m 123.62478,442.70286 c 0.72138,0.79805 1.46678,1.59477 2.04447,2.48685 1.33038,2.05438 2.46993,4.2472 4.3711,6.50326 0.89957,1.06748 1.48567,2.3063 2.26625,3.43023 0.22112,0.3326 0.1655,0.55166 0.13646,0.78162 -0.84815,-0.88502 -1.67218,-1.57456 -2.81786,-2.36467 -1.17692,-0.59734 -2.75095,-2.20425 -3.74806,-3.55648 -1.23306,-1.67222 -2.61309,-4.10518 -2.65502,-5.48826 l -0.01,-0.53612 c 0.0316,-1.52865 0.24775,-1.23302 0.41262,-1.25641 z"
               style="color:#000;fill:#FFF;fill-rule:nonzero;stroke:#000;stroke-width:0.1555692;stroke-linecap:butt;stroke-linejoin:miter;stroke-miterlimit:4;" />
          </g>
          <path
             style="color:#000;fill:#FFF;fill-rule:nonzero;stroke:#000;stroke-width:0.1555692;stroke-linecap:round;stroke-linejoin:miter;stroke-miterlimit:4;"
             d="m 128.09375,473.23471 c 7.77321,-5.01522 29.56015,-4.96243 38,0 v 2.1875 c -11.97564,-5.24785 -27.68689,-5.04841 -38,0 z" />
        </g>
        <path
           d="m 138.74192,429.663 -1.78851,8.26758 -4.58872,-2.65681 2.65667,4.5887 -8.26741,1.78866 8.26757,1.78851 -2.65683,4.58871 4.58872,-2.65682 1.78851,8.26759 1.7885,-8.26759 4.58872,2.65682 -2.65682,-4.58871 8.26757,-1.78851 -8.26741,-1.78866 2.65666,-4.5887 -4.58872,2.65681 z"
           style="color:#000;fill:#FFF;fill-rule:nonzero;stroke:none;stroke-width:0.08023435;stroke-linecap:round;stroke-linejoin:miter;stroke-miterlimit:4" />
        <path
           style="color:#000;fill:#FFF;fill-rule:nonzero;stroke:none;stroke-width:0.08023435;stroke-linecap:round;stroke-linejoin:miter;stroke-miterlimit:4"
           d="m 224.49724,515.41832 -8.26758,-1.78852 2.65723,-4.58847 -4.58889,2.65632 -1.78866,-8.26739 -1.78851,8.26756 -4.58848,-2.65724 2.65725,4.58848 -8.26758,1.78851 8.26759,1.7885 -2.65725,4.58847 4.58847,-2.65723 1.78851,8.26757 1.78866,-8.26742 4.5889,2.65633 -2.65724,-4.58848 z" />
        <path
           style="color:#000;fill:#FFF;fill-rule:nonzero;stroke:none;stroke-width:0.08023435;stroke-linecap:round;stroke-linejoin:miter;stroke-miterlimit:4"
           d="m 52.986599,515.41832 8.267577,1.78851 -2.656372,4.58897 4.588894,-2.65633 1.788662,8.26741 1.78851,-8.26757 4.588729,2.65681 -2.656809,-4.58872 8.267587,-1.78851 -8.267589,-1.7885 2.657241,-4.58848 -4.588471,2.65724 -1.78851,-8.26757 -1.788658,8.2674 -4.588891,-2.65633 2.65681,4.58873 z" />
        <path
           d="m 101.8587,439.54596 -1.78851,8.26758 -4.588974,-2.65638 2.656674,4.5887 -8.267411,1.78866 8.267571,1.78851 -2.65681,4.58873 4.58872,-2.65682 1.78851,8.26759 1.7885,-8.26759 4.58848,2.65724 -2.65682,-4.58871 8.26757,-1.78851 -8.26741,-1.78866 2.65633,-4.58889 -4.58872,2.65682 z"
           style="color:#000;fill:#FFF;fill-rule:nonzero;stroke:none;stroke-width:0.08023435;stroke-linecap:round;stroke-linejoin:miter;stroke-miterlimit:4" />
        <path
           style="color:#000;fill:#FFF;fill-rule:nonzero;stroke:none;stroke-width:0.08023435;stroke-linecap:round;stroke-linejoin:miter;stroke-miterlimit:4"
           d="m 74.858651,466.54761 -1.788506,8.26758 -4.588972,-2.65638 2.656328,4.5889 -8.267413,1.78866 8.267569,1.78851 -2.656811,4.58873 4.588729,-2.65681 1.788507,8.26759 1.788499,-8.26759 4.588481,2.65724 -2.657238,-4.58847 8.267569,-1.78851 -8.267401,-1.78866 2.656325,-4.58889 -4.588728,2.65681 z" />
        <path
           d="m 175.62555,439.54581 -1.78852,8.26758 -4.58871,-2.6568 2.65632,4.58889 -8.2674,1.78865 8.26757,1.78851 -2.65683,4.58872 4.58848,-2.65724 1.7885,8.26758 1.7885,-8.26759 4.58872,2.65682 -2.65723,-4.58847 8.26757,-1.78851 -8.26742,-1.78866 2.65667,-4.5887 -4.58847,2.65724 z"
           style="color:#000;fill:#FFF;fill-rule:nonzero;stroke:none;stroke-width:0.08023435;stroke-linecap:round;stroke-linejoin:miter;stroke-miterlimit:4" />
        <path
           style="color:#000;fill:#FFF;fill-rule:nonzero;stroke:none;stroke-width:0.08023435;stroke-linecap:round;stroke-linejoin:miter;stroke-miterlimit:4"
           d="m 214.61405,478.53471 -8.26759,-1.78852 2.65724,-4.58846 -4.5889,2.65632 -1.78865,-8.26741 -1.78851,8.26757 -4.58848,-2.65724 2.65725,4.58847 -8.26758,1.78851 8.26758,1.7885 -2.65724,4.58848 4.58847,-2.65724 1.78851,8.26757 1.78866,-8.26741 4.58889,2.65632 -2.65723,-4.58847 z" />
      </g>
    </g>
  </g>
</svg>
