<?xml version="1.0" encoding="UTF-8" standalone="no"?>
<svg
   xmlns:dc="http://purl.org/dc/elements/1.1/"
   xmlns:cc="http://web.resource.org/cc/"
   xmlns:rdf="http://www.w3.org/1999/02/22-rdf-syntax-ns#"
   xmlns:svg="http://www.w3.org/2000/svg"
   xmlns="http://www.w3.org/2000/svg"
   xmlns:sodipodi="http://sodipodi.sourceforge.net/DTD/sodipodi-0.dtd"
   xmlns:inkscape="http://www.inkscape.org/namespaces/inkscape"
   version="1.0"
   width="200"
   height="220"
   id="svg2"
   sodipodi:version="0.32"
   inkscape:version="0.45.1"
   sodipodi:docname="Escudo_Gondor.svg"
   inkscape:output_extension="org.inkscape.output.svg.inkscape"
   sodipodi:docbase="C:\Documents and Settings\Rondador Nocturno\Escritorio">
  <metadata
     id="metadata15">
    <rdf:RDF>
      <cc:Work
         rdf:about="">
        <dc:format>image/svg+xml</dc:format>
        <dc:type
           rdf:resource="http://purl.org/dc/dcmitype/StillImage" />
      </cc:Work>
    </rdf:RDF>
  </metadata>
  <sodipodi:namedview
     inkscape:window-height="971"
     inkscape:window-width="1280"
     inkscape:pageshadow="2"
     inkscape:pageopacity="0.0"
     guidetolerance="10.0"
     gridtolerance="10.0"
     objecttolerance="10.0"
     borderopacity="1.0"
     bordercolor="#666666"
     pagecolor="#ffffff"
     id="base"
     inkscape:zoom="3.4636364"
     inkscape:cx="100"
     inkscape:cy="110"
     inkscape:window-x="0"
     inkscape:window-y="23"
     inkscape:current-layer="svg2" />
  <defs
     id="defs4" />
  <g
     transform="translate(36.428569,-128.36218)"
     id="layer2"
     style="display:inline" />
  <path
     d="M 0.032416349,0 L 200.0324,0.014879674 L 200,100.37455 C 200,159.42643 148.69312,207.04875 100.17825,220 C 49.677104,206.5185 0,159.40881 0,100.37455 L 0.032416349,0 z "
     id="path3284"
     style="fill:#3cb400;fill-opacity:1;fill-rule:evenodd"
     sodipodi:nodetypes="cccccc" />
  <path
     d="M 98.861294,15.891867 C 95.421696,17.872098 90.12834,19.611911 92.524449,21.939194 C 95.503774,20.125374 97.87483,22.185406 98.861294,24.262252 C 98.861294,25.25779 98.861294,26.253504 98.861294,27.249041 C 98.317359,27.52008 97.319812,27.226575 95.761255,25.884706 C 90.132373,23.01019 80.183384,27.260523 87.190556,31.895159 C 92.818345,34.430304 86.714666,25.036404 94.43918,28.244638 C 101.55211,30.506268 97.582052,46.065998 88.786164,39.269947 C 82.455444,35.252032 70.411065,34.797592 69.000612,26.806554 C 70.267806,23.886433 81.184296,23.345525 74.744805,26.843428 C 81.828636,30.79366 78.984901,17.464844 71.371232,21.754824 C 61.366193,21.539421 67.444969,32.545579 61.706399,36.725645 C 60.419098,44.023241 69.361355,40.336436 72.465363,37.020636 C 69.197846,38.451771 60.043505,37.053523 67.952069,35.361309 C 75.64056,35.868836 81.9831,39.387932 87.555266,42.994215 C 87.199642,46.336163 100.9839,50.127229 90.88325,49.336534 C 85.853571,52.378887 97.763882,54.011619 94.940657,58.923759 C 97.561683,64.350754 90.45349,68.730564 87.555266,62.058044 C 88.683619,57.643401 75.558329,53.5806 79.21251,58.886885 C 90.125397,62.444672 71.377285,60.727856 70.413866,56.195087 C 66.290622,51.650223 71.236565,44.784731 73.331551,51.032735 C 79.697139,44.394481 66.359622,43.770801 66.174104,51.217105 C 65.95879,59.859368 76.281819,60.544186 81.902251,64.528598 C 86.180083,67.561221 100.42956,74.182822 89.789118,77.471353 C 84.776447,77.586788 76.203063,70.01334 78.483089,67.921001 C 86.284612,68.620568 77.01132,64.985304 74.653627,64.491725 C 68.612135,61.423352 77.353668,69.079149 73.741851,71.018413 C 81.898369,70.940759 72.50163,80.239766 81.081651,77.692596 C 86.061643,79.958674 91.002234,84.824643 93.61858,88.681031 C 90.236894,95.858707 79.741574,84.981885 76.021292,81.527487 C 72.292534,76.746429 69.324765,71.817173 66.35646,67.367892 C 60.972905,59.29832 60.096274,58.459988 55.278374,49.484029 C 51.620016,43.360465 42.94982,37.022902 36.647739,41.823028 C 35.16839,42.949809 36.679217,49.214138 41.827386,49.063557 C 45.391608,48.959306 37.292193,47.050975 37.880808,44.204033 C 38.275348,42.295774 41.668427,40.191635 46.950815,44.685149 C 49.913617,47.205484 56.53104,53.688345 47.838712,52.635874 C 42.456834,52.956934 40.815272,53.312014 30.660405,55.900096 C 20.50554,58.488178 19.342537,71.83725 30.432462,73.562715 C 38.311753,74.340359 48.5408,68.889447 46.06943,61.726178 C 44.108208,56.059344 29.102854,61.939576 41.282603,61.136196 C 47.254617,65.917431 36.411803,75.668825 29.429507,70.391555 C 21.147246,67.600404 25.9928,59.950931 32.347193,57.965036 C 39.061272,56.350501 50.092233,53.841833 53.819531,60.361843 C 53.967564,64.753146 61.487641,74.275686 51.038613,71.719018 C 42.614788,72.115781 34.763284,74.958614 28.654498,77.434479 C 23.104087,80.060517 20.480526,70.176648 18.214655,76.438882 C 18.851661,78.759026 25.327265,83.645101 25.691224,80.200024 C 36.298949,80.908263 17.460063,88.334499 15.023437,82.080596 C 12.942044,76.661872 12.454801,90.703387 19.126432,88.091049 C 22.820265,88.285412 26.326291,84.151342 24.323559,89.639754 C 22.669599,91.936216 10.479907,89.71893 17.348467,93.327148 C 19.47023,102.78911 28.177237,85.396395 29.70304,94.802106 C 31.922303,103.84274 49.863514,101.95773 50.309192,93.364022 C 54.629201,90.850317 46.184862,75.64998 46.798852,86.80046 C 53.450077,94.057772 37.712992,103.07867 32.301604,95.097098 C 27.683828,89.019682 29.667393,79.316229 39.09434,77.471353 C 44.802929,73.610869 54.161652,74.736344 59.974023,77.471353 C 64.602979,78.000166 67.70248,82.869757 70.869754,84.256158 C 67.374984,82.537585 57.690348,81.994399 65.307916,85.58362 C 74.759901,85.552563 76.950311,94.161998 83.08756,97.383282 C 88.405203,104.4117 72.150735,97.553787 72.146241,93.253401 C 62.683055,91.642676 67.219918,97.284 72.830074,98.415753 C 66.469941,103.7685 61.073218,92.454929 64.03143,89.012897 C 59.746076,82.039686 51.722572,88.570775 55.916618,92.737165 C 66.026329,91.876109 61.660606,103.57567 59.062247,104.49996 C 62.163764,108.03842 73.826131,104.62617 63.985841,104.27871 C 60.258693,99.632852 79.321004,100.31874 72.237419,105.82742 C 66.601301,115.80927 91.244678,113.50446 82.859617,107.11801 C 82.113757,113.90791 69.253691,108.88748 76.659536,104.38934 C 86.9002,100.9959 93.069136,110.51787 93.345047,117.07397 C 93.64258,132.79229 94.128956,148.54335 92.797981,164.23574 C 89.069514,170.00658 76.831474,169.85153 76.796302,177.98972 C 73.952958,180.83097 73.082494,188.53553 65.94616,185.29077 C 67.344289,183.34048 75.338378,182.34067 68.225602,182.52522 C 56.935714,187.39577 77.947766,190.58695 77.708078,182.74647 C 77.00299,179.1582 88.110443,173.60219 88.96852,176.99413 C 81.732808,179.29177 83.806172,187.82425 77.616901,189.56814 C 75.809367,187.88311 81.853657,185.98087 76.340413,187.76132 C 69.987738,193.01346 87.936185,193.353 85.321414,186.58135 C 85.865212,177.85543 100.89979,179.47524 95.715666,188.09319 C 93.640578,193.00628 89.54593,188.56915 93.208281,187.2082 C 85.386708,187.02549 92.060842,194.67815 96.308322,195.57859 C 97.874461,198.9795 94.160773,199.69293 97.90393,203.02713 C 98.470004,205.44805 99.312724,206.05407 100.0466,205.71893 C 100.77307,206.02098 101.58595,205.41236 102.14368,203.02713 C 105.88684,199.69293 102.17315,198.9795 103.73929,195.57859 C 107.98677,194.67815 114.66092,187.02549 106.83933,187.2082 C 110.5017,188.56915 106.36144,193.00628 104.28636,188.09319 C 99.102234,179.47524 114.1824,177.85543 114.7262,186.58135 C 112.11143,193.353 130.05989,193.01346 123.70719,187.76132 C 118.19396,185.98087 124.23825,187.88311 122.43072,189.56814 C 116.24144,187.82425 118.31482,179.29177 111.07909,176.99413 C 111.93717,173.60219 123.04462,179.1582 122.33954,182.74647 C 122.09985,190.58695 143.11192,187.39577 131.82201,182.52522 C 124.70924,182.34067 132.70333,183.34048 134.10145,185.29077 C 126.96513,188.53553 126.09466,180.83097 123.25132,177.98972 C 123.21614,169.85153 110.9781,170.00658 107.24963,164.23574 C 105.91866,148.54335 106.40504,132.79229 106.70257,117.07397 C 106.97849,110.51787 113.14741,100.9959 123.38808,104.38934 C 130.79393,108.88748 117.93386,113.90791 117.18799,107.11801 C 108.80295,113.50446 133.44633,115.80927 127.8102,105.82742 C 120.72661,100.31874 139.78892,99.632852 136.06177,104.27871 C 126.22148,104.62617 137.88385,108.03842 140.98536,104.49996 C 138.387,103.57567 134.02129,91.876109 144.13099,92.737165 C 148.32507,88.570775 140.30156,82.039686 136.01618,89.012897 C 138.9744,92.454929 133.53209,103.7685 127.17195,98.415753 C 132.7821,97.284 137.36457,91.642676 127.90138,93.253401 C 127.89689,97.553787 111.64241,104.4117 116.96005,97.383282 C 123.0973,94.161998 125.28773,85.552563 134.73969,85.58362 C 142.35729,81.994399 132.67263,82.537585 129.17786,84.256158 C 132.34514,82.869757 135.39906,78.000166 140.028,77.471353 C 145.84038,74.736344 155.19911,73.610869 160.90769,77.471353 C 170.33466,79.316229 172.36381,89.019682 167.74601,95.097098 C 162.33463,103.07867 146.59754,94.057772 153.24876,86.80046 C 153.86276,75.64998 145.41843,90.850317 149.73843,93.364022 C 150.18411,101.95773 168.12532,103.84274 170.34457,94.802106 C 171.87039,85.396395 180.57738,102.78911 182.69914,93.327148 C 189.56772,89.71893 177.37804,91.936216 175.72405,89.639754 C 173.72133,84.151342 177.18177,88.285412 180.8756,88.091049 C 187.54723,90.703387 187.10559,76.661872 185.02417,82.080596 C 182.58757,88.334499 163.70309,80.908263 174.3108,80.200024 C 174.67478,83.645101 181.19597,78.759026 181.83296,76.438882 C 179.5671,70.176648 176.94355,80.060517 171.39312,77.434479 C 165.28435,74.958614 157.43286,72.115781 149.009,71.719018 C 138.55998,74.275686 146.08007,64.753146 146.22808,60.361843 C 149.9554,53.841833 160.98634,56.350501 167.70042,57.965036 C 174.05481,59.950931 178.85479,67.600404 170.57252,70.391555 C 163.59023,75.668825 152.74742,65.917431 158.71942,61.136196 C 170.89919,61.939576 155.89383,56.059344 153.9326,61.726178 C 151.46124,68.889447 161.73585,74.340359 169.61515,73.562715 C 180.70509,71.83725 179.63425,59.063681 169.38721,55.900096 C 154.90344,51.428495 165.89598,54.277152 152.38257,51.512096 C 143.69026,52.564568 150.74185,47.837601 153.70465,45.317274 C 158.98704,40.823752 161.19957,42.051985 163.46933,44.274269 C 165.8165,47.687975 153.65455,44.882293 162.80218,47.459969 C 165.73017,48.285033 167.03532,42.512141 164.35506,41.471849 C 158.82052,37.519442 148.57073,43.794575 144.76924,49.484029 C 140.81766,57.976692 139.33408,59.927126 133.69115,67.367892 C 130.64545,71.383953 127.75507,76.746429 124.02632,81.527487 C 120.30604,84.981885 109.76516,95.858707 106.38344,88.681031 C 108.99981,84.824643 113.94039,79.958674 118.92037,77.692596 C 127.5004,80.239766 118.14926,70.940759 126.30576,71.018413 C 122.69396,69.079149 131.3899,61.423352 125.3484,64.491725 C 122.99071,64.985304 113.76301,68.620568 121.56452,67.921001 C 123.84455,70.01334 115.22559,77.586788 110.21291,77.471353 C 99.572484,74.182822 113.86752,67.561221 118.14537,64.528598 C 123.76579,60.544186 134.08882,59.859367 133.87351,51.217105 C 133.68799,43.770799 120.35047,44.394481 126.71606,51.032735 C 128.81104,44.784731 133.757,51.650223 129.63374,56.195087 C 128.67035,60.727856 109.92223,62.444672 120.83511,58.886885 C 124.4893,53.5806 111.36399,57.643401 112.49235,62.058044 C 109.59412,68.730564 102.48593,64.350754 105.10696,58.923759 C 102.28375,54.011619 114.19406,52.378887 109.16436,49.336534 C 99.063714,50.127229 112.80238,46.336163 112.44676,42.994215 C 118.01893,39.387932 124.40707,35.868836 132.09555,35.361309 C 140.0041,37.053523 130.80421,38.451771 127.53667,37.020636 C 130.64067,40.336436 139.62853,44.023241 138.34121,36.725645 C 132.60267,32.545579 138.68142,21.539421 128.67638,21.754824 C 121.06271,17.464844 118.21901,30.79366 125.30281,26.843428 C 118.86332,23.345525 129.77982,23.886433 131.047,26.806554 C 129.63655,34.797592 117.59217,35.252032 111.26145,39.269947 C 102.46558,46.065998 98.495504,30.506268 105.60843,28.244638 C 113.33296,25.036404 107.18371,34.430304 112.81147,31.895159 C 119.81864,27.260523 109.91524,23.01019 104.28636,25.884706 C 102.67813,27.269349 101.67189,27.529543 101.14073,27.212167 C 101.14073,26.253504 101.14073,25.294663 101.14073,24.336 C 102.1054,22.235141 104.50905,20.104193 107.52317,21.939194 C 109.93193,19.599628 104.57851,17.848239 101.14073,15.854993 C 100.56424,14.830948 100.15872,12.67992 98.861294,15.891867 z M 58.621555,62.165154 C 64.110052,63.099133 60.490912,73.333004 58.667144,65.557557 C 58.403336,64.576191 57.270574,62.893076 58.621555,62.165154 z M 141.03313,62.797279 C 142.38414,63.5252 141.26821,65.203583 141.03313,66.189681 C 139.18062,73.960395 135.54463,63.731258 141.03313,62.797279 z "
     id="path3253"
     style="fill:#ffffff;fill-opacity:1;stroke:#000000;stroke-opacity:1;stroke-width:1.5;stroke-miterlimit:4;stroke-dasharray:none" />
</svg>
