<?xml version="1.0" encoding="UTF-8" standalone="no"?>
<!-- Created with Inkscape (http://www.inkscape.org/) -->

<svg
   xmlns:dc="http://purl.org/dc/elements/1.1/"
   xmlns:cc="http://creativecommons.org/ns#"
   xmlns:rdf="http://www.w3.org/1999/02/22-rdf-syntax-ns#"
   xmlns:svg="http://www.w3.org/2000/svg"
   xmlns="http://www.w3.org/2000/svg"
   xmlns:xlink="http://www.w3.org/1999/xlink"
   xmlns:sodipodi="http://sodipodi.sourceforge.net/DTD/sodipodi-0.dtd"
   xmlns:inkscape="http://www.inkscape.org/namespaces/inkscape"
   height="220"
   id="svg557"
   version="1.0"
   width="200"
   x="0.0000000"
   y="0.0000000"
   sodipodi:version="0.32"
   inkscape:version="0.92.2 (5c3e80d, 2017-08-06)"
   sodipodi:docname="Escudo_Minas_Morgul.svg"
   inkscape:output_extension="org.inkscape.output.svg.inkscape">
  <sodipodi:namedview
     inkscape:window-height="971"
     inkscape:window-width="1280"
     inkscape:pageshadow="2"
     inkscape:pageopacity="0.0"
     guidetolerance="10.0"
     gridtolerance="10.0"
     objecttolerance="10.0"
     borderopacity="1.0"
     bordercolor="#666666"
     pagecolor="#ffffff"
     id="base"
     width="200px"
     height="220px"
     inkscape:zoom="3.4636364"
     inkscape:cx="100"
     inkscape:cy="110"
     inkscape:window-x="0"
     inkscape:window-y="23"
     inkscape:current-layer="svg557"
     showgrid="false"
     inkscape:window-maximized="0" />
  <metadata
     id="metadata3">
    <rdf:RDF>
      <cc:Work
         rdf:about="">
        <dc:title />
        <dc:description />
        <dc:subject>
          <rdf:Bag>
            <rdf:li />
            <rdf:li>pirate</rdf:li>
            <rdf:li>flag</rdf:li>
            <rdf:li>historic</rdf:li>
            <rdf:li>sign</rdf:li>
          </rdf:Bag>
        </dc:subject>
        <dc:publisher>
          <cc:Agent
             rdf:about="http://www.openclipart.org">
            <dc:title />
          </cc:Agent>
        </dc:publisher>
        <dc:creator>
          <cc:Agent>
            <dc:title />
          </cc:Agent>
        </dc:creator>
        <dc:rights>
          <cc:Agent>
            <dc:title />
          </cc:Agent>
        </dc:rights>
        <dc:date />
        <dc:format>image/svg+xml</dc:format>
        <dc:type
           rdf:resource="http://purl.org/dc/dcmitype/StillImage" />
        <cc:license
           rdf:resource="" />
        <dc:language>en</dc:language>
      </cc:Work>
    </rdf:RDF>
  </metadata>
  <defs
     id="defs559">
    <linearGradient
       id="linearGradient668">
      <stop
         id="stop669"
         offset="0.0000000"
         style="stop-color:#000000;stop-opacity:1.0000000;" />
      <stop
         id="stop670"
         offset="1.0000000"
         style="stop-color:#ffffff;stop-opacity:1.0000000;" />
    </linearGradient>
    <linearGradient
       id="linearGradient671"
       x1="0.206049"
       x2="1.138461"
       xlink:href="#linearGradient668"
       y1="0.225852"
       y2="1.290324" />
  </defs>
  <path
     sodipodi:type="arc"
     style="fill:#000000;fill-opacity:1;stroke:none;stroke-opacity:1"
     id="path2175"
     sodipodi:cx="100.03937"
     sodipodi:cy="109.71129"
     sodipodi:rx="100.03937"
     sodipodi:ry="110"
     d="M 200.07874 109.71129 A 100.03937 110 0 1 1  0,109.71129 A 100.03937 110 0 1 1  200.07874 109.71129 z"
     transform="translate(-3.9367676e-2,0.2887115)" />
  <g
     id="g4195"
     transform="matrix(0.5,0,0,0.5,-100.41559,-23.25)"
     style="fill:#ffffff;fill-opacity:1">
    <path
       id="path4164"
       d="M 361.63775,100.69099 C 460.07032,92.561291 547.19062,160.22689 556.09624,251.75502 C 565.00187,343.28314 492.33661,424.17995 393.90402,432.30965 C 351.9654,435.77342 312.07249,425.46408 279.41651,405.42199 C 297.55625,410.05006 316.90579,411.81401 336.79951,410.17096 C 424.29511,402.94455 489.05584,332.69202 481.33491,253.33965 C 473.61398,173.9873 396.32043,115.43299 308.82482,122.65939 C 298.26489,123.53155 288.06858,125.3446 278.25884,127.95845 C 302.36006,112.97758 330.72414,103.2442 361.63775,100.69099 z "
       style="fill:#ffffff;fill-opacity:1;stroke:none;stroke-opacity:1" />
    <g
       transform="matrix(-1.1843005,-3.9933858e-2,-3.6792072e-2,1.091126,775.492,78.57185)"
       style="fill:#ffffff;fill-opacity:1;stroke:none"
       id="g2209">
      <path
         style="fill:#ffffff;fill-opacity:1;stroke:none;stroke-width:1"
         id="selection_to_path"
         d="M 308.73454,182.52135 C 311.73454,173.52135 308.73454,157.52135 309.73454,147.52135 C 310.73454,141.52135 314.73454,135.52135 317.73454,129.52135 C 319.73454,123.52135 322.73454,115.52135 329.73454,113.52135 C 327.73454,119.52135 326.73454,119.52135 324.73454,124.52135 C 324.73454,124.52135 321.73454,135.52135 321.73454,135.52135 C 319.73454,140.52135 316.73454,142.52135 315.73454,147.52135 C 313.73454,154.52135 314.73454,171.52135 314.73454,179.52135 C 314.73454,181.52135 314.73454,184.52135 312.73454,186.52135 C 309.73454,190.52135 300.73454,187.52135 301.73454,197.52135 C 301.73454,198.52135 301.73454,200.52135 302.73454,201.52135 C 306.73454,210.52135 322.73454,213.52135 330.73454,217.52135 C 338.73454,222.52135 336.73454,227.52135 344.73454,232.52135 C 352.73454,238.52135 373.73454,238.52135 383.73454,237.52135 C 386.73454,236.52135 391.73454,236.52135 394.73454,234.52135 C 402.73454,231.52135 403.73454,223.52135 411.73454,218.52135 C 417.73454,215.52135 430.73454,213.52135 436.73454,204.52135 C 437.73454,203.52135 438.73454,201.52135 438.73454,200.52135 C 441.73454,189.52135 428.73454,193.52135 425.73454,186.52135 C 423.73454,181.52135 426.73454,165.52135 427.73454,160.52135 C 427.73454,160.52135 430.73454,163.52135 430.73454,163.52135 C 430.73454,163.52135 430.73454,172.52135 430.73454,172.52135 C 430.73454,172.52135 431.73454,182.52135 431.73454,182.52135 C 442.73454,180.52135 441.73454,167.52135 442.73454,158.52135 C 444.73454,134.52135 444.73454,119.52135 427.73454,100.52135 C 417.73454,90.52135 404.73454,82.52135 390.73454,80.52135 C 390.73454,80.52135 381.73454,80.52135 381.73454,80.52135 C 381.73454,80.52135 374.73454,79.52135 374.73454,79.52135 C 374.73454,79.52135 366.73454,80.52135 366.73454,80.52135 C 353.73454,81.52135 344.73454,81.52135 333.73454,87.52135 C 325.73454,91.52135 320.73454,96.52135 314.73454,103.52135 C 299.73454,119.52135 296.73454,139.52135 299.73454,160.52135 C 300.73454,168.52135 302.73454,177.52135 308.73454,182.52135 z M 341.73454,152.52135 C 355.73454,151.52135 365.73454,161.52135 360.73454,175.52135 C 356.73454,184.52135 347.73454,191.52135 337.73454,193.52135 C 328.73454,194.52135 324.73454,188.52135 324.73454,180.52135 C 324.73454,167.52135 326.73454,156.52135 341.73454,152.52135 z M 397.73454,152.52135 C 409.73454,152.52135 415.73454,162.52135 416.73454,173.52135 C 416.73454,176.52135 417.73454,179.52135 417.73454,181.52135 C 416.73454,188.52135 409.73454,193.52135 402.73454,194.52135 C 391.73454,194.52135 378.73454,177.52135 379.73454,167.52135 C 381.73454,158.52135 389.73454,154.52135 397.73454,152.52135 z M 379.73454,213.52135 C 379.73454,213.52135 368.73454,211.52135 368.73454,211.52135 C 368.73454,211.52135 359.73454,214.52135 359.73454,214.52135 C 358.73454,207.52135 361.73454,197.52135 364.73454,190.52135 C 365.73454,188.52135 367.73454,184.52135 369.73454,183.52135 C 373.73454,182.52135 374.73454,187.52135 374.73454,189.52135 C 376.73454,197.52135 379.73454,205.52135 379.73454,213.52135 z " />
      <path
         style="fill:#ffffff;fill-opacity:1;stroke:none;stroke-width:1"
         id="selection_to_path#1"
         d="M 418.73454,229.52135 C 415.73454,230.52135 411.73454,230.52135 408.73454,232.52135 C 398.73454,239.52135 403.73454,256.52135 394.73454,267.52135 C 390.73454,272.52135 381.73454,274.52135 374.73454,274.52135 C 361.73454,274.52135 345.73454,273.52135 339.73454,260.52135 C 334.73454,251.52135 341.73454,242.52135 330.73454,231.52135 C 328.73454,230.52135 325.73454,227.52135 323.73454,227.52135 C 320.73454,227.52135 321.73454,231.52135 321.73454,233.52135 C 321.73454,233.52135 322.73454,253.52135 322.73454,253.52135 C 322.73454,268.52135 326.73454,268.52135 333.73454,277.52135 C 337.73454,283.52135 340.73454,289.52135 347.73454,292.52135 C 356.73454,295.52135 366.73454,295.52135 375.73454,294.52135 C 382.73454,294.52135 386.73454,295.52135 393.73454,291.52135 C 400.73454,287.52135 412.73454,271.52135 414.73454,263.52135 C 414.73454,263.52135 415.73454,249.52135 415.73454,249.52135 C 417.73454,239.52135 418.73454,241.52135 418.73454,229.52135 z " />
      <path
         style="fill:#ffffff;fill-opacity:1;stroke:none;stroke-width:1;stroke-opacity:1"
         id="selection_to_path#8"
         d="M 347.73454,260.52135 C 347.73454,263.02135 347.98454,266.05635 348.98454,267.55635 C 349.98454,269.05635 353.73954,269.19535 354.73454,268.52135 C 355.54254,267.70135 353.98454,263.77135 353.10954,262.64635 C 352.23454,261.52135 350.73454,261.02135 347.73454,260.52135 z " />
      <path
         style="fill:#ffffff;fill-opacity:1;stroke:none;stroke-width:1;stroke-opacity:1"
         id="selection_to_path#7"
         d="M 355.73454,261.52135 C 355.73454,261.52135 356.73454,266.52135 356.73454,266.52135 C 356.73454,267.52135 357.73454,269.52135 358.73454,270.52135 C 362.73454,272.52135 364.73454,262.52135 361.73454,261.52135 C 359.73454,260.52135 357.73454,261.52135 355.73454,261.52135 z " />
      <path
         style="fill:#ffffff;fill-opacity:1;stroke:none;stroke-width:1;stroke-opacity:1"
         id="selection_to_path#6"
         d="M 367.73454,262.52135 C 364.73454,264.52135 364.64754,268.24235 365.77254,270.11735 C 366.89754,271.99235 369.23454,272.02135 370.73454,271.52135 C 371.73454,271.02135 373.23454,268.52135 373.35954,266.27135 C 373.48454,264.02135 372.23454,262.02135 367.73454,262.52135 z " />
      <path
         style="fill:#ffffff;fill-opacity:1;stroke:none;stroke-width:1;stroke-opacity:1"
         id="path784"
         d="M 356.73454,249.52135 C 359.43754,250.91635 363.90854,249.43435 363.90854,249.43435 C 363.90854,249.43435 363.73454,243.52135 363.73454,243.52135 C 362.73454,239.52135 359.73454,238.52135 357.73454,240.52135 C 356.73454,242.52135 356.73454,247.52135 356.73454,249.52135 z " />
      <path
         style="fill:#ffffff;fill-opacity:1;stroke:none;stroke-width:1;stroke-opacity:1"
         id="path785"
         d="M 371.73454,239.52135 C 370.73454,239.52135 367.60154,238.99835 366.60154,239.99835 C 364.64754,241.95735 363.73454,248.52135 366.73454,250.52135 C 368.60654,250.99835 371.73454,251.43435 372.73454,247.43435 C 372.73454,247.43435 372.73454,244.52135 372.73454,244.52135 C 372.73454,244.52135 372.69354,241.26535 371.73454,239.52135 z " />
      <path
         style="fill:#ffffff;fill-opacity:1;stroke:none;stroke-width:1;stroke-opacity:1"
         id="path786"
         d="M 381.73454,271.52135 C 382.64754,271.91635 383.73454,270.52135 384.73454,269.52135 C 391.73454,262.52135 377.17054,256.91135 379.73454,267.52135 C 379.73454,267.52135 380.68854,271.34735 381.73454,271.52135 z " />
      <path
         style="fill:#ffffff;fill-opacity:1;stroke:none;stroke-width:1;stroke-opacity:1"
         id="path787"
         d="M 353.47254,238.52135 C 352.47254,238.17235 350.73454,238.52135 349.73454,238.52135 C 341.95554,242.04435 351.73454,255.52135 354.73454,246.52135 C 354.73454,245.52135 354.73454,244.52135 354.73454,243.52135 C 354.73454,243.52135 354.17054,238.87035 353.47254,238.52135 z " />
      <path
         style="fill:#ffffff;fill-opacity:1;stroke:none;stroke-width:1;stroke-opacity:1"
         id="path788"
         d="M 375.73454,239.52135 C 375.73454,239.52135 374.03654,249.64935 374.73454,250.52135 C 376.04254,251.21835 380.07754,251.04435 381.56054,249.99835 C 381.56054,246.99835 381.74454,243.49535 381.14154,241.66435 C 380.53854,239.83235 379.23454,240.02135 375.73454,239.52135 z " />
      <path
         style="fill:#ffffff;fill-opacity:1;stroke:none;stroke-width:1;stroke-opacity:1"
         id="path789"
         d="M 385.29854,238.34735 C 385.29854,238.34735 384.73454,243.52135 384.73454,243.52135 C 384.73454,246.52135 385.38554,252.34735 389.38554,249.34735 C 389.88554,248.84735 391.23654,242.89935 390.68254,240.18535 C 389.65254,238.73135 387.77054,238.58535 385.29854,238.34735 z " />
    </g>
  </g>
</svg>
