<?xml version="1.0" encoding="UTF-8" standalone="no"?>
<!-- Created with Inkscape (http://www.inkscape.org/) -->

<svg
   xmlns:dc="http://purl.org/dc/elements/1.1/"
   xmlns:cc="http://creativecommons.org/ns#"
   xmlns:rdf="http://www.w3.org/1999/02/22-rdf-syntax-ns#"
   xmlns:svg="http://www.w3.org/2000/svg"
   xmlns="http://www.w3.org/2000/svg"
   xmlns:sodipodi="http://sodipodi.sourceforge.net/DTD/sodipodi-0.dtd"
   xmlns:inkscape="http://www.inkscape.org/namespaces/inkscape"
   id="svg4136"
   version="1.1"
   inkscape:version="0.92.2 (5c3e80d, 2017-08-06)"
   width="2172.324"
   height="2402.321"
   viewBox="0 0 2172.3239 2402.321"
   sodipodi:docname="Coat_of_Arms_of_the_Kingdom_of_Rohan.svg">
  <metadata
     id="metadata4142">
    <rdf:RDF>
      <cc:Work
         rdf:about="">
        <dc:format>image/svg+xml</dc:format>
        <dc:type
           rdf:resource="http://purl.org/dc/dcmitype/StillImage" />
        <dc:title />
      </cc:Work>
    </rdf:RDF>
  </metadata>
  <defs
     id="defs4140" />
  <sodipodi:namedview
     pagecolor="#ffffff"
     bordercolor="#666666"
     borderopacity="1"
     objecttolerance="10"
     gridtolerance="10"
     guidetolerance="10"
     inkscape:pageopacity="0"
     inkscape:pageshadow="2"
     inkscape:window-width="1064"
     inkscape:window-height="594"
     id="namedview4138"
     showgrid="false"
     inkscape:snap-global="false"
     inkscape:zoom="0.1767767"
     inkscape:cx="455.09741"
     inkscape:cy="1285.1663"
     inkscape:window-x="768"
     inkscape:window-y="169"
     inkscape:window-maximized="0"
     inkscape:current-layer="svg4136"
     fit-margin-top="0"
     fit-margin-left="0"
     fit-margin-right="0"
     fit-margin-bottom="0" />
  <path
     style="fill:#008000;fill-opacity:1;fill-rule:evenodd;stroke:none;stroke-width:10.97370434px;stroke-linecap:butt;stroke-linejoin:miter;stroke-opacity:1"
     d="M 4.0411906,-4.068704e-7 0.07606218,1189.2751 C -7.1085316,1740.5013 495.84321,2256.1451 1086.0441,2402.2553 v 0.066 c 0.033,-0.01 0.077,-0.011 0.1098,-0.022 0.044,0.01 0.088,0.011 0.1284,0.022 l 0.2995,-0.1284 C 1676.649,2255.9812 2179.4312,1740.4087 2172.2479,1189.2751 L 2168.2828,-4.068704e-7 C 1452.8452,11.6209 653.91623,4.4718831 4.0411906,-4.068704e-7 Z"
     id="path4157"
     inkscape:connector-curvature="0"
     sodipodi:nodetypes="cccccccccc" />
  <g
     id="g3558"
     transform="matrix(12.426138,0,0,12.426138,6227.0045,5436.29)">
    <path
       id="path2104"
       d="m -379.56681,-368.61112 c -0.12997,-10e-4 -0.26026,-10e-4 -0.39109,0.001 -3.48915,0.0564 -7.28847,1.37202 -11.31148,3.54885 0,0 -7.18597,7.37118 2.64527,2.02812 8.11217,-4.40878 11.24261,2.02797 11.24261,8.86157 0,2.86571 1.63133,6.7454 6.43691,9.43475 -0.39679,-0.48496 -1.93994,-3.74739 -2.02812,-9.74333 2.82163,13.93174 7.67663,23.4404 21.77938,20.50073 -14.28445,1.54307 -17.41482,-8.46485 -19.22241,-16.04795 0.58245,1.54353 3.19627,7.80368 6.21629,10.978 3.63155,3.81711 11.28664,6.48099 16.70944,3.35075 5.4228,-3.13023 4.32053,-8.2005 9.30244,-11.11029 -7.09812,-0.79358 -5.99587,6.78954 -15.03388,7.05407 6.04004,-1.98395 7.62726,-6.48104 7.62726,-9.21449 0,-2.73344 -1.05812,-3.96784 -2.64529,-5.46683 -1.58715,-1.49899 -5.46695,-2.24841 -8.509,1.14635 4.40878,-1.1022 6.30461,0.66133 6.30461,3.08616 0,0.3527 0.35265,5.42285 -5.42285,5.42285 -5.7755,0 -9.87567,-5.64331 -10.44881,-10.27253 -0.57315,-4.62922 -2.77739,-9.65523 -7.71523,-12.21232 -1.73594,-0.89898 -3.58655,-1.32378 -5.53605,-1.34549 z m 12.03809,6.01546 c 1.05163,1.81133 1.73818,3.78444 2.13552,5.72871 2.77933,1.77945 4.14902,8.71723 11.30533,10.67214 1.17694,-0.32553 1.67655,-0.9914 2.01414,-1.68986 0.23662,-0.48955 0.35018,-1.02361 0.3969,-1.45255 0.0468,-0.42895 0.0283,-0.57685 0.0283,-0.86574 0,-0.19176 -0.015,-0.36467 -0.0402,-0.52646 -8.4969,-0.97879 -6.95281,-5.71011 -15.83995,-11.86624 z m 28.34619,2.32647 c 2.14978,1.77356 0.77796,7.7159 -5.43172,9.32257 0.14346,0.59562 0.22505,1.24862 0.22505,1.97697 0,0.73727 -0.15762,1.5727 -0.43747,2.44717 7.82868,-2.65351 11.66866,-10.83833 5.64414,-13.74671 z m 4.82342,13.47768 c -3.56643,-0.0188 -5.92291,3.29349 -7.28354,5.97796 -0.46983,0.92693 -0.99065,1.92248 -1.69736,2.89453 6.54605,-0.35846 3.7063,-8.74918 14.6946,-6.76288 -2.02635,-1.16906 -3.86959,-2.09987 -5.7137,-2.10961 z m -50.91424,4.21512 c -0.57555,6.31397 6.4676,8.43175 8.64983,8.83703 2.18224,0.40527 9.35264,12.12689 11.37899,14.71439 2.02637,2.58751 4.95648,1.71476 7.48164,1.71476 2.52518,0 4.23987,1.27797 6.88973,1.27797 2.64985,0 3.83459,-0.71692 3.83459,-1.18454 0,-0.46762 0.31164,-1.15338 -2.96169,-4.02145 -3.27335,-2.86808 -6.04283,-1.82955 -7.25525,-0.92575 -1.21241,0.9038 -2.82164,0.59522 -2.64529,-0.74946 -1.58714,0.0882 -1.69746,-0.37444 -0.77162,-1.01371 -4.21038,-0.46292 -6.26048,-4.365 -7.93582,-6.78982 -1.67533,-2.42483 -2.73319,-7.4508 -4.67305,-8.55299 -1.93987,-1.1022 -9.03817,-0.39663 -11.99206,-3.30643 z"
       style="fill:#d5b662;fill-opacity:1;stroke:none;stroke-width:0.17457871px;stroke-linecap:butt;stroke-linejoin:miter;stroke-opacity:1"
       inkscape:connector-curvature="0" />
    <path
       id="path3207"
       d="m -390.69824,-363.84124 c 0.0925,0.0711 0.18416,0.14338 0.27517,0.21652 0.93235,-0.49751 1.91196,-0.94 2.9252,-1.32195 2.36551,-0.89739 4.67676,-1.56951 6.46385,-1.56951 8.28907,0 8.17852,9.978 10.60054,16.51031 1.53118,4.05173 4.31396,7.22603 7.12397,10.07919 1.65593,1.68133 4.31642,3.21695 7.12431,3.92018 2.80794,0.70323 5.71452,0.58566 8.07121,-0.77469 2.4267,-1.4008 3.30848,-3.10958 4.3273,-5.12007 0.39498,-0.77947 0.8852,-1.61198 1.40855,-2.43046 -4.84262,4.11773 -7.58628,7.53739 -14.15075,4.13942 4.5083,-0.88847 9.61708,-3.93992 9.68672,-8.77735 0.0347,-2.41065 -0.71532,-3.10416 -2.25519,-4.55849 -0.53583,-0.50608 -1.68601,-0.95037 -3.03093,-0.85175 0.26018,0.099 0.58882,0.098 0.82209,0.23596 1.42231,0.84129 2.112,2.40301 2.112,3.94097 0,-0.11995 0.0257,0.50713 -0.0423,1.13136 -0.068,0.62422 -0.22758,1.42727 -0.62773,2.2552 -0.80032,1.65586 -2.74826,3.28358 -6.00149,3.28358 -3.29464,0 -6.09699,-1.61733 -8.09711,-3.80527 -2.00013,-2.18795 -3.2682,-4.94876 -3.59183,-7.56246 -0.53868,-4.35096 -2.5712,-8.93601 -7.05031,-11.25556 -1.10716,-0.57334 -2.25545,-0.92999 -3.46668,-1.09691 -0.5678,-0.0782 -1.1514,-0.11336 -1.74954,-0.10775 v 0 c -0.35888,0.003 -0.72302,0.0215 -1.09215,0.0539 -2.90504,0.25444 -6.13146,1.41008 -9.59331,3.26415 -0.0348,0.0361 -0.11531,0.12129 -0.19093,0.20151 z"
       style="fill:#fefdfa;fill-opacity:1;fill-rule:evenodd;stroke:none;stroke-width:0.17457871px;stroke-linecap:butt;stroke-linejoin:miter;stroke-opacity:1"
       inkscape:connector-curvature="0" />
    <path
       d="m -439.12891,-375.42016 c 1.55875,0 5.61147,3.8345 8.35486,4.92562 2.74338,1.09112 5.73615,1.62109 5.73615,1.62109 -4.08389,0.15587 -8.09312,0.14447 -11.03588,-1.27817 -3.79043,-1.83245 -3.80331,-5.26854 -3.05513,-5.26854 z m -0.15191,-4.03573 c 2.3146,-0.22044 7.19743,2.97579 8.72499,3.69281 1.52756,0.71702 4.27095,2.74338 6.88963,2.46281 -2.49398,0.90406 -8.32367,0 -10.69295,-0.96642 -2.3693,-0.96642 -4.80091,-2.33811 -4.80091,-2.33811 0.0935,-1.46522 -0.12076,-2.85109 -0.12076,-2.85109 z m 0.55109,-4.01199 c 3.4168,-0.24249 5.0701,1.14628 8.00194,3.19636 2.93184,2.05009 6.67929,2.57914 8.42077,2.02804 -2.84366,1.87373 -6.23843,1.54308 -9.56706,-0.22044 -3.32862,-1.76351 -5.81957,-2.09416 -6.89973,-2.18234 0.15431,-1.21242 0.0441,-2.82162 0.0441,-2.82162 z m -0.11859,-4.60923 c 1.90165,-0.56115 3.92802,-0.15588 8.69775,3.02395 4.76974,3.17983 8.41719,2.30693 9.50831,1.93284 -3.55391,1.93283 -5.64262,2.2134 -11.44113,-0.15588 -5.79851,-2.36928 -6.70259,-1.74579 -6.70259,-1.74579 0.15588,-1.18464 0.0312,-2.40045 -0.0623,-3.05512 z m -0.67499,-5.02395 c 0,0 2.88776,-0.70541 5.90776,0.99197 3.02002,1.69738 6.19433,4.91579 12.36663,3.6152 -4.21038,2.82162 -7.8917,1.2565 -11.50692,-0.13226 -3.61519,-1.38877 -4.91578,-1.82965 -6.0841,-1.71942 -0.15431,-1.27855 -0.68337,-2.75549 -0.68337,-2.75549 z m -1.75665,-4.42201 c 3.95921,-1.18465 7.10785,-0.77937 11.00469,1.34051 3.89686,2.11989 7.51312,2.93043 9.22775,2.43164 -2.80575,1.87048 -8.63542,0.87289 -11.44114,-0.2494 -2.80574,-1.12229 -5.70499,-1.15347 -7.63782,-0.65467 -0.21823,-1.09112 -0.90407,-2.24459 -1.15348,-2.86808 z m -2.80572,-2.89925 c 2.61868,-2.40046 6.51552,-2.08871 10.87999,-0.46763 4.36447,1.62109 8.44837,1.65227 8.44837,1.65227 0,0 -4.52035,0.68584 -6.98315,0.68584 -2.46281,0 -3.9592,-0.71702 -6.11026,-0.71702 -2.15106,0 -3.67863,1.12229 -3.67863,1.12229 0,0 -1.15332,-1.46528 -2.55632,-2.27575 z m 9.44611,-9.50839 c -2.83691,1.18466 -5.11288,2.05778 -8.10565,2.05778 -2.99278,0 -7.54432,-0.31185 -9.66422,4.23967 1.49682,-0.0408 2.84235,0.23505 3.96484,0.63047 0.011,-0.0137 0.0143,-0.0245 0.0256,-0.0382 0.78793,-0.95608 1.80145,-1.64277 2.89965,-2.0697 1.55597,-0.60491 3.23009,-0.60797 4.80057,-0.86063 3.02394,-0.90407 5.23751,-2.58769 6.07923,-3.95939 z m -7.73981,4.2225 c -2.34879,0.25981 -4.4265,0.91881 -5.94045,2.72233 -0.0113,0.0137 -0.0145,0.0246 -0.0256,0.0382 1.44914,0.51048 2.51673,1.22541 2.9559,1.77 2.99277,-2.33811 6.07928,-2.05759 8.54208,-2.24464 2.46282,-0.18705 7.4196,-2.11983 7.4196,-2.11983 0,0 -3.86587,0.43645 -6.35985,0.21823 -2.32248,-0.23569 -4.47533,-0.61838 -6.59171,-0.38429 z m -9.62471,0.89025 c 2.05756,-2.9616 4.7074,-4.02156 7.63782,-5.01914 2.93045,-0.99759 4.20861,-3.14866 4.20861,-3.14866 0,0 -2.93043,0.87289 -5.95439,1.43403 -3.02395,0.56115 -6.64021,1.37171 -8.54188,3.95921 0.93524,0.84171 2.64984,2.77456 2.64984,2.77456 z m -5.0503,-5.51795 c 2.80573,-2.11987 4.39564,-1.62108 5.98556,-2.0887 1.58991,-0.46762 2.77454,-0.93524 3.24217,-1.46521 -0.52997,1.62108 -2.77455,2.86807 -4.52033,3.95919 -1.74579,1.09111 -2.30694,2.33811 -2.30694,2.33811 -0.99759,-1.15346 -1.83931,-2.30694 -2.40046,-2.74339 z m -1.16218,1.23105 c -0.23893,1.2886 -0.55977,4.19237 -0.62877,5.50673 0.75245,-0.20249 1.64468,-0.36654 2.69506,-0.4218 -0.25295,-1.47533 -1.00482,-4.46367 -2.06629,-5.08493 z m 1.16203,-1.23092 c 1.94168,2.81836 2.27422,5.24597 2.4598,7.02747 -0.25636,-0.0129 -0.51519,-0.0211 -0.77812,-0.0211 -3.9238,0 -5.75338,1.56529 -6.21629,1.54324 -0.46294,-0.022 -2.77758,-0.19844 -4.16636,0.68332 -1.38876,0.88175 -2.11621,1.58704 -2.13826,1.74135 -0.022,0.15431 -2.77772,0.41897 -5.13642,2.22657 -2.3587,1.80759 -5.53301,3.43885 -6.85564,3.96791 -1.32264,0.52905 -1.74135,1.35547 -1.74135,2.60095 0,1.24548 0.95882,1.5872 0.95882,1.86275 0,0.27554 -0.39656,0.47388 -0.39656,1.09111 0,0.17636 0.27104,0.79788 1.2998,0.79788 1.58992,0 3.50699,-1.62133 5.09689,-1.62133 0.3897,0 0.71707,0.29621 0.71707,0.49884 0,0.20263 -0.0934,0.60796 -1.18455,0.60796 -2.32251,0 -2.74347,1.46512 -2.74347,1.83921 0,0.3741 1.05999,1.18488 2.46285,1.18488 1.40286,0 4.70753,-3.33574 9.57081,-3.33574 4.86327,0 2.02605,1.62099 7.69986,1.62099 h 3.5e-4 c -2.15542,3.46629 -3.70843,9.98063 -3.70843,13.37539 0,3.39475 0.97006,7.36236 0.97006,10.13989 0,2.77753 -1.37685,9.59242 0.15071,11.96171 0,0 -1.55887,-0.1248 -3.02409,-0.1248 -1.4652,0 -7.1076,1.09112 -9.72628,1.09112 -2.61868,0 -3.30462,0.87284 -4.92573,2.11983 -1.62108,1.24699 -3.80323,3.0239 -4.89433,5.39319 -1.09113,2.36928 -2.58774,2.61888 -3.80356,3.52294 -1.21583,0.90407 -3.27335,2.36928 -3.27335,3.05513 0,0.68584 1.19144,1.06218 0.31199,2.43149 -0.72628,1.13081 -1.952,2.82032 -2.20169,4.59564 -0.25401,1.80628 0.23325,5.46547 0.58036,5.56743 0.89384,0.26258 6.01682,-1.62109 6.01682,-5.23736 0,-0.96642 -1.93264,-3.02391 -1.93264,-3.42918 0,-0.40527 0.43636,-1.24694 1.18454,-1.24694 0.74821,0 1.40277,0.561 1.83921,0.24925 0.43645,-0.31175 0.31053,-1.2392 0.8729,-2.21326 1.31791,-2.28269 2.15121,-1.62109 4.33345,-4.80092 2.18223,-3.17983 3.86552,-2.83695 5.4866,-3.33574 1.62109,-0.4988 3.30469,-0.93539 3.67878,-1.27831 0.3741,-0.34293 0.43638,-0.46768 1.0287,-0.0624 0.59233,0.40527 3.6161,0.74814 7.60647,0.15582 -1.62109,1.0288 -3.6474,1.06009 -6.92076,1.06009 -3.27335,0 -6.70253,5.67385 -7.57542,7.48199 -0.87289,1.80814 -3.89674,4.3334 -5.11257,5.36216 -1.2158,1.02877 -4.08384,3.33561 -4.08384,5.11257 0,0.84172 0.93529,1.99528 0.93529,3.17993 0,1.18463 -0.64578,7.39735 0.031,8.82236 0.23902,0.50323 5.95853,-2.28182 5.95853,-5.80884 0,-3.52702 -2.22656,-2.29248 -2.22656,-4.45278 0,-0.77154 0.35293,-1.49654 0.9404,-1.49654 0.58746,0 0.84518,0.85714 2.2119,0.59262 -0.39679,-1.27855 -0.35265,-2.68914 2.77758,-6.56886 3.13023,-3.87973 3.52693,-3.43901 4.89365,-3.61535 1.36672,-1.45491 3.08614,-2.42478 6.92178,-3.26245 3.83564,-0.83767 11.15421,0.74949 15.60707,0.88177 0.96994,0.48495 7.27467,3.52703 15.95996,3.52703 14.72533,0 18.25244,-9.22574 24.48739,-9.22574 1.43406,0 3.8197,0.99336 4.83093,2.74485 2.36982,4.10464 6.87755,8.15624 12.43261,10.00793 5.55506,1.85168 7.40686,2.6892 8.77359,4.62906 1.36672,1.93987 2.80723,5.68173 3.89052,7.55803 0,6.45318 2.52524,10.06949 3.83459,10.97357 0,1.65226 2.33798,1.68353 4.17729,2.08881 1.8393,0.40527 3.8034,2.30693 5.14392,3.05512 1.34052,0.74819 4.08395,1.34037 4.64509,1.34037 0.56115,0 1.46517,-0.46772 1.46517,-1.43413 0,-0.96642 -3.08636,-8.75997 -6.6091,-8.75997 -0.62351,0 -2.49409,0.0312 -3.61638,1.37174 -2.1199,-0.93524 0.0312,-0.77946 1.96401,-1.65236 -4.67621,-1.05994 -2.32991,-1.6674 -1.64656,-2.24054 -0.92584,-0.0882 -2.24873,-0.70547 -2.24873,-0.70547 0,0 0.19858,-0.30852 1.16852,-1.80751 -2.13825,1.16833 -2.77777,0.74942 -4.45312,-2.46899 -1.67532,-3.21841 -2.67119,-14.56846 -2.67119,-14.56846 0,0 -4.76963,-2.15136 -6.64013,-3.21129 -1.87047,-1.05995 -4.35561,-3.16197 -4.35561,-3.99963 0,-0.83767 2.38069,-5.24646 2.38069,-13.09409 0,-12.12414 -11.77159,-16.13592 -18.03207,-16.13592 -6.26046,0 -6.78935,3.96792 -18.91349,3.96792 -26.05589,0 -18.78153,-11.28677 -18.78153,-23.27864 0,-4.59079 -3.6458,-12.09504 -10.7066,-14.46651 -0.0387,-0.14982 -0.0965,-0.29313 -0.17594,-0.42417 -0.62349,-1.02877 -4.67639,-6.04766 -6.14162,-7.32582 z"
       style="fill:#d5b662;fill-opacity:1;stroke:none;stroke-width:0.17457871px;stroke-linecap:butt;stroke-linejoin:miter;stroke-opacity:1"
       id="path2010"
       inkscape:connector-curvature="0" />
    <path
       id="path3205"
       d="m -382.85858,-365.67806 -0.008,0.014 c 1.52712,0.21406 2.83819,0.9489 3.81617,1.98993 2.16638,2.30606 2.91771,5.89536 2.91771,9.50294 0,1.66623 0.72639,3.84085 2.62891,5.85623 -0.30778,-2.33216 -0.71474,-4.42379 -0.70547,-6.34314 0.0461,-9.53625 -3.37008,-11.01994 -8.64915,-11.01994 z"
       style="fill:#fefdfa;fill-opacity:1;fill-rule:evenodd;stroke:none;stroke-width:0.17457871px;stroke-linecap:butt;stroke-linejoin:miter;stroke-opacity:1"
       inkscape:connector-curvature="0" />
    <path
       id="path3197"
       d="m -365.55346,-360.1386 c 0.35008,0.93955 0.61891,1.89151 0.82549,2.83895 1.5504,1.15045 2.49829,3.24293 3.95395,5.26532 1.50426,2.08995 3.43382,4.09805 6.67285,5.04744 0.80649,-0.27056 1.08258,-0.66423 1.35299,-1.22375 0.18463,-0.38192 0.28685,-0.84215 0.32665,-1.20773 0.036,-0.32999 0.0234,-0.44568 0.0201,-0.6649 -3.94406,-0.58549 -5.88905,-2.12932 -7.62862,-4.14898 -1.44773,-1.68081 -2.85824,-3.66328 -5.52344,-5.90635 z"
       style="fill:#fefdfa;fill-opacity:1;fill-rule:evenodd;stroke:none;stroke-width:0.17457871px;stroke-linecap:butt;stroke-linejoin:miter;stroke-opacity:1"
       inkscape:connector-curvature="0" />
    <path
       style="fill:#fefdfa;fill-opacity:1;fill-rule:evenodd;stroke:none;stroke-width:0.17457871px;stroke-linecap:butt;stroke-linejoin:miter;stroke-opacity:1"
       d="m -451.93276,-411.32836 c -1.11027,0.15368 -2.19538,0.30422 -3.69105,1.21388 0.29085,0.32723 0.60691,0.65135 0.91621,1.03757 0.42581,-0.50841 0.98408,-1.10426 1.86102,-1.65235 0.30803,-0.19253 0.59747,-0.40202 0.91382,-0.5991 z"
       id="path3433"
       inkscape:connector-curvature="0" />
    <path
       style="fill:#fefdfa;fill-opacity:1;fill-rule:evenodd;stroke:none;stroke-width:0.17457871px;stroke-linecap:butt;stroke-linejoin:miter;stroke-opacity:1"
       d="m -443.82166,-411.13502 c -0.92867,0.22568 -1.03705,0.30941 -2.11848,0.51009 -2.71452,0.50375 -5.64352,1.28841 -7.38721,3.05956 0.57901,0.5931 0.945,0.96594 1.29538,1.35573 2.11034,-2.49555 4.71106,-3.61754 7.36093,-4.51962 0.33034,-0.11246 0.56697,-0.26854 0.84938,-0.40576 z"
       id="path3431"
       inkscape:connector-curvature="0" />
    <path
       style="fill:#fefdfa;fill-opacity:1;fill-rule:evenodd;stroke:none;stroke-width:0.17457871px;stroke-linecap:butt;stroke-linejoin:miter;stroke-opacity:1"
       d="m -458.12894,-407.52377 c -0.1456,1.09906 -0.2613,2.14751 -0.33858,3.11105 0.39367,-0.0792 0.82061,-0.1382 1.27489,-0.18549 -0.13648,-0.6523 -0.31715,-1.40302 -0.56977,-2.12665 -0.10633,-0.30464 -0.23933,-0.54198 -0.36654,-0.79891 z"
       id="path3429"
       inkscape:connector-curvature="0" />
    <path
       style="fill:#fefdfa;fill-opacity:1;fill-rule:evenodd;stroke:none;stroke-width:0.17457871px;stroke-linecap:butt;stroke-linejoin:miter;stroke-opacity:1"
       d="m -440.3318,-407.1296 c -0.76819,0.1218 -1.56213,0.19844 -2.41376,0.19846 -1.5291,0 -3.32139,-0.0598 -4.90866,0.37882 -1.21741,0.33641 -2.30074,0.92418 -3.16901,2.09152 0.7593,0.0858 1.46352,0.22227 2.11337,0.4177 0.82935,-0.85767 1.79297,-1.53553 2.84951,-1.94628 1.74089,-0.67679 3.46589,-0.67778 4.92025,-0.90323 0.2181,-0.0662 0.39967,-0.16187 0.6083,-0.23699 z"
       id="path3427"
       inkscape:connector-curvature="0" />
    <path
       style="fill:#fefdfa;fill-opacity:1;fill-rule:evenodd;stroke:none;stroke-width:0.17457871px;stroke-linecap:butt;stroke-linejoin:miter;stroke-opacity:1"
       d="m -440.93531,-404.83655 c -0.45714,-0.002 -0.90399,0.0168 -1.34107,0.0651 -1.76589,0.19534 -3.23063,0.6193 -4.42038,1.55042 0.55595,0.27976 1.01374,0.584 1.39698,0.91108 3.06436,-2.03448 6.20777,-1.88652 8.38182,-2.05164 0.0904,-0.007 0.28313,-0.0823 0.38529,-0.0955 -1.56773,-0.17384 -3.03126,-0.37258 -4.40264,-0.3795 z"
       id="path3425"
       inkscape:connector-curvature="0" />
    <path
       style="fill:#fefdfa;fill-opacity:1;fill-rule:evenodd;stroke:none;stroke-width:0.17457871px;stroke-linecap:butt;stroke-linejoin:miter;stroke-opacity:1"
       d="m -454.49517,-402.84901 c -1.93694,-0.004 -3.43737,0.69695 -4.70715,1.51324 -0.1964,0.54557 0.56738,0.56739 1.52756,0.10911 0.54692,-0.26102 1.79615,-0.60392 3.34598,-0.5742 -0.0559,-0.29818 -0.10306,-0.64962 -0.14525,-1.04747 -0.007,-4e-5 -0.0141,-7e-4 -0.0211,-7e-4 z"
       id="path3423"
       inkscape:connector-curvature="0" />
    <path
       style="fill:#fefdfa;fill-opacity:1;fill-rule:evenodd;stroke:none;stroke-width:0.17457871px;stroke-linecap:butt;stroke-linejoin:miter;stroke-opacity:1"
       d="m -450.73697,-402.05011 c -0.0117,0.26502 -0.0825,0.53303 -0.20628,0.79959 -0.12412,0.26734 -0.33248,0.52159 -0.59467,0.70956 0.39623,0.16207 1.19547,0.40542 1.19547,0.40542 0,0 0,-0.5387 -0.21482,-0.80231 0.009,0.004 0.0182,0.008 0.0273,0.0126 0.1732,0.0914 5.57765,2.99391 5.57765,9.73686 0,1.09111 -0.21822,3.62251 -3.31699,8.55436 -2.7455,4.36958 -7.95669,12.50726 -7.77387,17.55402 2.20058,-1.93827 4.27109,-3.59009 6.46009,-4.73169 3.3717,-4.25431 8.11795,-8.93288 8.87726,-16.19798 0.0731,-0.69896 0.0702,-1.40529 0.0702,-2.1096 0,-2.56164 -1.26288,-6.27926 -3.74663,-9.28473 -0.92303,-1.11694 -2.02417,-2.11493 -3.25664,-2.97977 -0.50087,-0.35148 -1.18747,-0.79972 -2.20167,-1.27934 -0.30726,-0.1453 -0.60535,-0.27249 -0.89643,-0.387 z"
       id="path3421"
       inkscape:connector-curvature="0" />
    <path
       style="fill:#fefdfa;fill-opacity:1;fill-rule:evenodd;stroke:none;stroke-width:0.17457871px;stroke-linecap:butt;stroke-linejoin:miter;stroke-opacity:1"
       d="m -454.82148,-401.48648 c -0.78967,-0.01 -1.74034,0.42212 -1.74034,0.65263 0,0.28367 0.85107,0.13093 0.98201,0.21822 0.13089,0.0873 -0.21823,0.39278 0.0873,0.41462 0.30552,0.0218 0.65467,0.26187 0.41463,0.43645 -0.24005,0.17459 -0.65467,-0.17458 -1.22205,-0.17458 -0.56738,0 -0.34916,0.30552 -0.93836,0.30552 -0.58919,0 0.24003,-1.06928 0.0218,-1.09112 -0.21822,-0.0218 -1.44027,1.04747 -1.72397,1.70214 -0.91653,0.0655 -2.11676,0.93837 -2.20405,1.28752 -0.0873,0.34916 0.15275,0.69832 -1.44028,1.63667 -1.59303,0.93838 -5.19371,0.91654 -5.19371,0.91654 0,0 0,0.17458 -0.61103,0.85107 0.41463,0.0655 2.98966,0.0655 5.10643,-0.37098 0,0 -0.26187,0.15276 -0.26187,2.29135 0,3.09877 3.01148,4.58269 4.97549,4.58269 1.96402,0 4.71363,-0.74196 5.58652,-6.06661 4.18989,3.14242 1.70215,7.85604 -1.35298,13.26798 -2.89068,5.12064 -4.88114,12.31112 -4.42175,17.98741 0.0177,-0.0158 0.0403,-0.034 0.0573,-0.0494 0.66857,-0.60888 1.48952,-1.36974 2.12632,-1.9398 -0.33109,-5.83306 3.93717,-12.83035 7.50517,-18.50808 2.10662,-3.35223 2.81615,-5.46516 3.05377,-6.76765 0.0496,-0.48566 0.0771,-0.9348 0.0771,-1.33662 0,-7.12899 -5.60459,-7.69476 -7.00122,-8.24032 -0.80095,-0.31286 -0.86961,-0.79559 -0.93496,-1.21012 -0.0669,-0.0679 -0.12688,-0.13617 -0.16298,-0.19606 -0.0966,-0.16028 -0.15295,-0.31261 -0.19674,-0.47463 -0.026,-0.0136 -0.0497,-0.0281 -0.0801,-0.0396 -0.15139,-0.0573 -0.32517,-0.083 -0.50736,-0.0852 z"
       id="path3419"
       inkscape:connector-curvature="0" />
    <path
       style="fill:#fefdfa;fill-opacity:1;fill-rule:evenodd;stroke:none;stroke-width:0.17457871px;stroke-linecap:butt;stroke-linejoin:miter;stroke-opacity:1"
       d="m -461.51549,-401.40123 c -0.91654,0 -2.68415,0.21822 -2.68415,0.63284 0,0.41462 2.48775,1.48392 3.20788,1.48392 0.72014,0 1.52757,-0.41462 1.52757,-1.30934 0,-0.89471 -0.76378,-0.80742 -2.0513,-0.80742 z"
       id="path3417"
       inkscape:connector-curvature="0" />
    <path
       style="fill:#fefdfa;fill-opacity:1;fill-rule:evenodd;stroke:none;stroke-width:0.17457871px;stroke-linecap:butt;stroke-linejoin:miter;stroke-opacity:1"
       d="m -439.29047,-401.22222 c -1.23313,0.013 -2.24766,0.36135 -3.17037,0.90085 0.50627,0.42922 0.86908,0.68917 1.14056,0.99496 0.69505,-0.38653 1.79025,-0.88414 3.46941,-0.88414 2.31163,0 3.78521,0.67403 5.98614,0.7024 -0.55844,-0.1639 -1.09251,-0.28333 -1.66907,-0.49748 -2.11485,-0.78552 -4.08141,-1.23426 -5.75667,-1.21659 z"
       id="path3415"
       inkscape:connector-curvature="0" />
    <path
       d="m -464.48841,-399.1832 c 0.39821,0 0.65448,0.35213 0.76855,1.05498 0.1077,0.66365 -0.21988,1.05643 -0.88892,1.06588 -0.33238,0.005 -0.36791,-0.0727 -0.36791,-0.79924 0,-1.00218 0.11821,-1.32162 0.48828,-1.32162 z m -0.009,-0.48623 c -0.40764,-0.003 -0.74216,0.17068 -1.07543,0.52715 -0.69759,0.74614 -0.91702,1.38044 -0.71673,2.07346 0.24506,0.84789 0.47768,0.94477 1.55826,0.64785 1.93262,-0.53104 2.97229,-1.45375 2.54263,-2.25656 -0.26278,-0.43794 -0.81375,-0.48791 -1.19136,-0.66899 -0.43912,-0.21216 -0.8003,-0.32083 -1.11737,-0.32291 z"
       style="fill:#fefdfa;fill-opacity:1;fill-rule:evenodd;stroke:none;stroke-width:0.17457871px;stroke-linecap:butt;stroke-linejoin:miter;stroke-opacity:1"
       id="path3411"
       inkscape:connector-curvature="0" />
    <path
       style="fill:#fefdfa;fill-opacity:1;fill-rule:evenodd;stroke:none;stroke-width:0.17457871px;stroke-linecap:butt;stroke-linejoin:miter;stroke-opacity:1"
       d="m -467.91963,-399.16069 c -0.61153,0.0212 -2.46753,0.769 -3.10082,1.29672 -0.71458,0.59547 -3.93572,2.84522 -4.86366,3.39678 -1.56892,0.93258 -1.99388,1.12503 -2.73154,1.23842 -0.98075,0.15075 -2.06206,0.90923 -2.10858,1.47881 -0.0754,0.92331 0.047,1.47268 0.39247,1.76079 0.42552,0.35486 0.37426,0.34777 0.87937,0.11763 0.22063,-0.10053 0.66855,-0.57864 0.99564,-1.06247 1.49745,-2.21511 4.17639,-4.16131 7.47654,-5.43206 2.66009,-1.0243 2.94295,-1.20337 3.14616,-1.99197 0.0966,-0.37488 0.13852,-0.71901 0.0931,-0.76446 -0.0294,-0.0294 -0.0913,-0.0412 -0.17866,-0.0382 z"
       id="path3409"
       inkscape:connector-curvature="0" />
    <path
       style="fill:#fefdfa;fill-opacity:1;fill-rule:evenodd;stroke:none;stroke-width:0.17457871px;stroke-linecap:butt;stroke-linejoin:miter;stroke-opacity:1"
       d="m -437.28414,-397.23726 c -0.34832,0.004 -0.69973,0.0254 -1.05667,0.0627 -0.4987,0.0521 -1.04428,0.20777 -1.57224,0.32631 0.16768,0.35305 0.28554,0.76416 0.43577,1.20739 2.08275,-0.36171 4.68193,-0.29738 7.33913,0.76549 1.17903,0.47162 3.06323,0.91898 4.95026,1.10816 -1.1354,-0.4194 -2.31112,-0.92036 -3.53761,-1.58757 -2.28759,-1.24446 -4.20951,-1.84311 -6.21118,-1.8815 -0.11548,-0.002 -0.23135,-0.002 -0.34746,-10e-4 z"
       id="path3407"
       inkscape:connector-curvature="0" />
    <path
       style="fill:#fefdfa;fill-opacity:1;fill-rule:evenodd;stroke:none;stroke-width:0.17457871px;stroke-linecap:butt;stroke-linejoin:miter;stroke-opacity:1"
       d="m -468.69977,-396.72137 c -0.12287,-0.007 -0.29146,0.0671 -0.47362,0.22573 -0.14917,0.12985 -1.13623,0.52401 -2.19349,0.87596 -1.77107,0.58958 -3.83255,1.64891 -3.83255,1.96947 0,0.16468 2.0044,0.95729 2.54128,0.8555 1.09075,-0.20679 1.83536,-1.06636 2.81782,-1.71169 0.64022,-0.42053 1.34069,-1.43667 1.34069,-1.94832 0,-0.16972 -0.0773,-0.25914 -0.20013,-0.26665 z"
       id="path3405"
       inkscape:connector-curvature="0" />
    <path
       style="fill:#fefdfa;fill-opacity:1;fill-rule:evenodd;stroke:none;stroke-width:0.17457871px;stroke-linecap:butt;stroke-linejoin:miter;stroke-opacity:1"
       d="m -467.88587,-393.63725 c -0.93805,-0.003 -3.21605,0.98155 -4.21342,1.8208 l -0.54181,0.45622 -0.50601,-0.5176 c -0.27832,-0.28469 -0.75745,-0.61946 -1.06451,-0.74366 -0.30705,-0.12419 -0.60183,-0.28884 -0.65536,-0.36621 -0.23105,-0.33398 -1.33107,0.2929 -2.26475,1.29093 -0.54326,0.5807 -0.9878,1.13922 -0.9878,1.2408 0,0.23048 -0.98498,1.1738 -1.50335,1.43994 -0.50981,0.26174 -0.48834,0.59665 0.0661,1.03281 0.64385,0.50645 1.27993,0.44458 2.7636,-0.26903 1.94633,-0.93615 3.46956,-0.96293 3.70434,-0.0651 0.20347,0.77808 -0.42683,1.38602 -2.15598,1.53098 -1.17671,0.0986 -1.66515,0.10238 -2.23848,0.91415 0.81875,-0.21289 0.91154,0.0149 1.79487,0.0109 1.61371,-0.007 3.45066,0.14621 4.01872,-1.82353 0.16955,-0.58785 -0.32521,-1.71858 -0.92199,-2.18803 -0.57034,-0.44863 -1.50811,-0.41994 -2.62994,0.0805 -1.0319,0.46031 -2.52729,0.34881 -2.52729,0.34881 0,0 1.12743,-0.38133 2.11881,-0.81799 1.51329,-0.66657 1.87493,-0.76621 2.2535,-0.62228 0.64826,0.24648 1.22212,0.73477 1.79863,1.53063 0.57412,0.79255 0.82656,0.84611 1.53099,0.32529 0.45928,-0.33955 0.6845,-0.36672 2.74176,-0.33279 2.08819,0.0344 2.24122,0.015 2.24122,-0.28437 0,-0.6078 -0.50287,-1.01303 -1.2882,-1.01303 -0.80062,0 -1.8119,0.53567 -2.54331,0.53567 -0.64982,0 -1.39574,-0.0875 -1.82252,-0.0931 1.08103,-0.1208 4.57349,-1.83231 4.57349,-2.80212 0,-0.36355 -0.8772,-0.61697 -1.74135,-0.61955 z"
       id="path3403"
       inkscape:connector-curvature="0" />
    <path
       style="fill:#fefdfa;fill-opacity:1;fill-rule:evenodd;stroke:none;stroke-width:0.17457871px;stroke-linecap:butt;stroke-linejoin:miter;stroke-opacity:1"
       d="m -452.64672,-392.44828 c 0.0336,2.28589 -0.75159,4.69223 -3.74663,6.19107 -0.27811,0.77698 -1.14433,2.26132 -2.30702,4.84524 -1.83161,4.07051 -2.79936,9.12722 -0.94688,15.366 0.334,-5.13207 2.12912,-10.72974 4.54653,-15.01207 1.52409,-2.69979 2.86316,-5.19504 3.29928,-7.23683 0.33547,-1.5706 0.27927,-2.79612 -0.84528,-4.15341 z"
       id="path3401"
       inkscape:connector-curvature="0" />
    <path
       style="fill:#fefdfa;fill-opacity:1;fill-rule:evenodd;stroke:none;stroke-width:0.17457871px;stroke-linecap:butt;stroke-linejoin:miter;stroke-opacity:1"
       d="m -437.95653,-392.30064 c -0.16864,0.006 -0.20284,0.0296 -0.39179,0.0467 0.10695,0.34485 0.15545,0.5732 0.26665,1.0785 1.25557,0.0801 2.66716,0.51787 5.66391,1.66907 1.14988,0.44172 2.26937,0.83088 3.37667,1.1443 -2.04226,-0.90062 -3.64417,-2.14375 -5.03517,-2.92555 -1.34923,-0.75834 -2.67026,-0.97954 -3.65625,-1.01167 -0.0968,-0.003 -0.16781,-0.003 -0.22402,-0.001 z"
       id="path3399"
       inkscape:connector-curvature="0" />
    <path
       style="fill:#fefdfa;fill-opacity:1;fill-rule:evenodd;stroke:none;stroke-width:0.17457871px;stroke-linecap:butt;stroke-linejoin:miter;stroke-opacity:1"
       d="m -465.84036,-389.06718 c -0.25472,-0.004 -0.58191,-10e-4 -1.00315,0.004 -2.05415,0.0267 -2.26717,0.16641 -1.7383,0.75082 0.30873,0.34115 0.2729,0.36822 1.79933,0.2571 0.89795,-0.0654 1.69778,-0.18094 1.77749,-0.25676 0.0797,-0.0758 0.11706,-0.28118 0.0829,-0.45656 -0.0423,-0.21675 -0.15412,-0.28664 -0.91823,-0.2987 z"
       id="path3397"
       inkscape:connector-curvature="0" />
    <path
       style="fill:#fefdfa;fill-opacity:1;fill-rule:evenodd;stroke:none;stroke-width:0.17457871px;stroke-linecap:butt;stroke-linejoin:miter;stroke-opacity:1"
       d="m -437.37279,-387.34662 c -0.1858,-0.003 -0.35136,0.0529 -0.52442,0.0747 0.0364,0.38323 0.027,0.80419 0.0242,1.28615 0.14586,0.0109 0.22155,-0.0107 0.40099,0.0157 1.07201,0.15792 2.80308,0.61871 5.74507,1.8208 1.55235,0.63429 2.77493,1.02978 3.83902,1.28615 -0.89533,-0.36697 -1.80209,-0.74982 -2.7861,-1.40583 -3.5236,-2.34907 -5.41444,-3.05647 -6.69878,-3.07764 z"
       id="path3395"
       inkscape:connector-curvature="0" />
    <path
       style="fill:#fefdfa;fill-opacity:1;fill-rule:evenodd;stroke:none;stroke-width:0.17457871px;stroke-linecap:butt;stroke-linejoin:miter;stroke-opacity:1"
       d="m -437.80719,-382.49081 c 0.0127,0.3193 -0.005,0.58139 -0.0168,1.06077 1.35558,0.17599 3.47841,0.59113 6.39089,2.13415 0.7875,0.41723 1.56413,0.74448 2.32476,0.9769 -0.73507,-0.32885 -1.46901,-0.69747 -2.15973,-1.18046 -1.47965,-1.03463 -2.5974,-1.86236 -3.68321,-2.37795 -0.85781,-0.40732 -1.76707,-0.58609 -2.85601,-0.61341 z"
       id="path3393"
       inkscape:connector-curvature="0" />
    <path
       style="fill:#fefdfa;fill-opacity:1;fill-rule:evenodd;stroke:none;stroke-width:0.17457871px;stroke-linecap:butt;stroke-linejoin:miter;stroke-opacity:1"
       d="m -441.46209,-378.37219 c -0.50999,0.82396 -1.43261,2.29405 -2.22315,3.42645 -0.65605,0.93976 -1.91246,2.62135 -3.08582,3.98906 1.81001,-0.53024 3.75499,-0.70495 5.95545,-0.41804 -0.81865,-2.09143 -0.84763,-4.47688 -0.64648,-6.99747 z"
       id="path3391"
       inkscape:connector-curvature="0" />
    <path
       style="fill:#fefdfa;fill-opacity:1;fill-rule:evenodd;stroke:none;stroke-width:0.17457871px;stroke-linecap:butt;stroke-linejoin:miter;stroke-opacity:1"
       d="m -438.29546,-378.32684 c 0.0349,0.36171 0.0417,0.57951 0.0477,1.11976 0.39577,0.21975 2.17487,1.22439 4.2448,2.06869 0.91821,0.37455 2.72959,0.75267 4.50425,0.99871 -0.49114,-0.27432 -1.14538,-0.62402 -1.45766,-0.7706 -0.90156,-0.42319 -2.43564,-1.37139 -4.09305,-2.21019 -1.22041,-0.61764 -2.37492,-1.01097 -3.24607,-1.20637 z"
       id="path3389"
       inkscape:connector-curvature="0" />
    <path
       style="fill:#fefdfa;fill-opacity:1;fill-rule:evenodd;stroke:none;stroke-width:0.17457871px;stroke-linecap:butt;stroke-linejoin:miter;stroke-opacity:1"
       d="m -438.47857,-374.19116 c 0.0238,0.1485 0,0.22278 0.0644,0.40439 0.30054,0.85268 1.06258,1.97155 2.7503,2.78746 1.07668,0.52052 2.39689,0.80313 3.81447,0.98747 -1.36519,-0.67919 -2.77805,-1.65851 -4.09032,-2.58527 -0.77196,-0.54517 -1.49759,-1.04753 -2.08915,-1.39458 -0.24188,-0.14191 -0.26507,-0.12227 -0.44975,-0.19947 z"
       id="path3387"
       inkscape:connector-curvature="0" />
    <path
       style="fill:#fefdfa;fill-opacity:1;fill-rule:evenodd;stroke:none;stroke-width:0.17457871px;stroke-linecap:butt;stroke-linejoin:miter;stroke-opacity:1"
       d="m -443.55635,-370.22393 c -2.61118,-0.0346 -4.32014,0.85789 -6.76425,2.38545 -2.79326,1.74579 -6.89586,6.24119 -8.2052,8.77259 -1.30934,2.53139 -1.61485,8.64164 0.8729,8.64164 4.27718,0 1.70214,-8.55436 3.88437,-10.95481 2.18224,-2.40046 6.67764,-3.75345 11.39127,-8.77258 -0.41463,-0.0437 -0.80607,-0.0674 -1.17909,-0.0723 z"
       id="path3385"
       inkscape:connector-curvature="0" />
    <path
       style="fill:#fefdfa;fill-opacity:1;fill-rule:evenodd;stroke:none;stroke-width:0.17457871px;stroke-linecap:butt;stroke-linejoin:miter;stroke-opacity:1"
       d="m -440.86026,-368.94562 c -1.4162,-0.0379 -2.64588,0.9632 -3.51954,1.99913 -0.38128,0.54285 -1.11383,1.14815 -0.81766,1.88218 0.49345,0.98372 1.64657,1.34958 2.6555,1.53643 0.55017,0.0938 1.20744,0.0955 1.52519,0.64887 0.26656,0.57793 -0.35033,1.11144 -0.53636,1.63463 -0.40839,0.64629 -0.0617,1.47491 0.63625,1.72942 1.56648,0.69717 3.21658,1.20468 4.88412,1.59781 l 0.12514,0.0242 0.13605,0.0232 c 1.32908,0.1671 2.70729,0.24085 4.01871,-0.0757 0.62374,-0.27453 1.4029,-0.53099 1.74067,-1.16614 0.0531,-0.71666 -0.63389,-1.18691 -1.13305,-1.58552 -1.81094,-1.30358 -3.62882,-2.64148 -5.09756,-4.33719 -0.64791,-0.90214 -1.26447,-1.83196 -1.99709,-2.67154 -0.54423,-0.7467 -1.44506,-1.10288 -2.33464,-1.21796 -0.096,-0.0121 -0.19132,-0.0193 -0.28573,-0.0218 z"
       id="path3383"
       inkscape:connector-curvature="0" />
    <path
       style="fill:#fefdfa;fill-opacity:1;fill-rule:evenodd;stroke:none;stroke-width:0.17457871px;stroke-linecap:butt;stroke-linejoin:miter;stroke-opacity:1"
       d="m -402.33531,-367.79585 c -0.69125,0 -1.32127,0.0359 -1.90502,0.10024 -3.21819,0.77304 -7.34912,2.96854 -11.20237,8.77804 -4.03254,6.07983 -7.32408,9.76655 -10.28923,11.8318 -5.19885,3.62103 -10.94536,3.12534 -15.90577,1.59576 -0.87251,-0.26905 -1.40562,-0.0898 -1.86785,0.61511 -2.60154,4.13015 -2.17289,6.52858 -0.85346,7.10386 2.50106,1.09047 7.25563,2.45773 13.10227,2.45774 2.30744,0 4.29137,-0.23066 6.0366,-0.61819 0.19017,-0.0462 0.35983,-0.0857 0.50909,-0.11866 0.29986,-0.0738 0.59249,-0.15249 0.87834,-0.23527 6.88858,-2.20792 11.19341,-12.76785 11.9658,-16.74864 0.8024,-4.13544 1.91335,-10.55464 7.09806,-9.44362 -2.40716,3.39476 -1.85178,4.32071 0.92575,8.57959 2.77752,4.25888 8.45625,13.57895 10.92514,13.57895 2.46891,0 8.7627,-11.63267 3.87449,-19.09591 5.15008,7.24502 1.44028,13.9663 -0.30551,17.93796 -1.74579,3.97167 -2.70597,7.55053 1.87672,9.55819 4.58269,2.00765 4.88821,-1.30935 3.09878,-2.61868 4.75727,2.18223 6.04999,2.79354 6.06661,3.27335 0.0218,0.62983 1.81012,0.97913 2.03867,1.1143 l -0.36892,-1.51836 c 0,-0.008 -0.002,-0.0145 -0.002,-0.0225 -0.79791,-0.36036 -4.39174,-1.989 -6.18833,-3.00705 -1.01769,-0.5767 -2.1397,-1.39288 -3.05411,-2.20849 -0.45721,-0.40781 -0.86022,-0.81152 -1.17909,-1.21455 -0.31885,-0.40303 -0.63592,-0.74751 -0.63592,-1.45767 0,-0.34455 0.0709,-0.52666 0.14527,-0.77332 0.0743,-0.24667 0.16965,-0.52332 0.28095,-0.84971 0.22288,-0.65279 0.51099,-1.50017 0.79958,-2.56106 0.5772,-2.12177 1.15489,-5.08858 1.15489,-8.90999 0,-5.11027 -2.12691,-8.60712 -5.1071,-10.95209 l -0.27517,-0.21652 c -0.27195,-0.21397 -0.55445,-0.41355 -0.84051,-0.60693 -3.51478,-2.37604 -7.88267,-3.34768 -10.7966,-3.34768 z"
       id="path3381"
       inkscape:connector-curvature="0" />
    <path
       style="fill:#fefdfa;fill-opacity:1;fill-rule:evenodd;stroke:none;stroke-width:0.17457871px;stroke-linecap:butt;stroke-linejoin:miter;stroke-opacity:1"
       d="m -411.65925,-364.89519 c -3.42441,1.66681 -8.07519,3.00462 -20.51778,0.6291 7.73661,7.83335 2.04638,9.27109 -5.58038,11.31659 -3.26624,0.87601 -7.07111,1.85573 -7.07111,4.36754 0,1.07214 1.56626,1.55136 2.70118,0.23697 4.20855,-4.87402 7.232,-2.99969 5.0737,-0.92233 0.56621,-2.01009 -1.51697,-1.94439 -4.68566,1.90672 -0.50914,0.61879 -0.37629,0.98817 0.35188,1.1958 5.55675,1.5845 10.87985,1.24918 15.03969,-1.73794 2.78101,-1.99701 6.04102,-5.57561 10.03248,-11.59346 1.5164,-2.28627 3.09342,-4.04745 4.656,-5.39899 z"
       id="path3379"
       inkscape:connector-curvature="0" />
    <path
       style="fill:#fefdfa;fill-opacity:1;fill-rule:evenodd;stroke:none;stroke-width:0.17457871px;stroke-linecap:butt;stroke-linejoin:miter;stroke-opacity:1"
       d="m -446.87539,-362.73512 c -4.8418,0 -6.58762,1.74886 -6.58762,4.89128 0,3.14241 0.37974,3.69774 0.13093,4.62633 -0.24883,0.9286 -3.79709,6.32848 -0.3928,6.32848 3.40428,0 4.58269,-1.52756 5.84839,-2.4441 1.26569,-0.91654 3.2297,-4.36447 3.2297,-7.24502 0,-1.33749 -0.93899,-2.08267 -1.60429,-2.08267 -0.77666,0 -1.12259,1.33154 -0.0542,1.55894 -2.34965,-0.10107 -1.07331,-2.5672 0.46884,-2.5672 1.11395,0 2.28078,1.38015 2.28078,3.17822 0,4.63546 9.32725,2.90629 12.09605,0.029 0.17711,-0.18404 0.42905,-0.62459 -0.68332,-0.35768 -3.21745,0.77205 -6.26439,-0.89345 -9.12173,-1.80409 -5.08574,-1.62083 1.70994,-4.02757 -5.61072,-4.11147 z"
       id="path3377"
       inkscape:connector-curvature="0" />
    <path
       style="fill:#fefdfa;fill-opacity:1;fill-rule:evenodd;stroke:none;stroke-width:0.17457871px;stroke-linecap:butt;stroke-linejoin:miter;stroke-opacity:1"
       d="m -405.99942,-362.07738 c -3.25035,0.39984 -3.42747,4.38128 -4.4562,8.8701 -0.82928,3.6186 -2.29372,7.12782 -3.93006,9.90939 -0.63152,1.07349 -1.34836,2.13172 -2.13859,3.1281 2.95455,-1.60143 8.6285,-5.29362 13.8207,-3.40224 1.22205,-4.10261 -7.87786,-12.15504 -3.29517,-18.50535 z"
       id="path3375"
       inkscape:connector-curvature="0" />
    <path
       d="m -469.97469,-348.64914 c 0.74427,-0.0218 -2.51877,2.25657 -2.86656,2.50207 -0.37098,0.26187 -1.35018,-0.26483 -1.83308,-0.72014 -0.28091,-0.26485 3.09877,-1.3748 4.4954,-1.74578 0.0873,-0.0232 0.15463,-0.0347 0.20424,-0.0361 z m 6.21801,-1.15317 c -0.51827,0 -2.38228,0.26261 -4.30956,0.53601 -1.9273,0.27342 -3.98848,0.55442 -5.41774,0.55442 -1.21332,0 -1.85453,0.18246 -2.43047,0.48964 -0.57593,0.3072 -1.12699,0.80281 -1.96811,1.44982 -1.6037,1.23361 -3.66025,2.94886 -4.6369,5.06961 -1.207,2.6209 -3.06757,3.10903 -4.07226,3.85607 -0.61591,0.45801 -1.42152,1.04282 -2.04891,1.57462 -0.30038,0.25461 -0.55692,0.49838 -0.71877,0.68297 0.008,1.04024 1.42186,0.97928 2.49901,0.97928 0.79061,0 1.84592,-0.48129 2.91157,-1.36765 0.5126,-0.69093 1.00889,-1.10043 1.47336,-1.47301 0.65896,-0.72012 1.47276,-1.5529 2.18188,-2.31828 0.0679,-0.0952 0.13333,-0.18379 0.20492,-0.28812 0.41876,-0.61019 0.83602,-1.10486 1.24695,-1.51052 0.0605,-0.11729 0.0979,-0.21886 0.0979,-0.29494 0,-0.67895 -0.6788,-0.58617 -1.4812,-0.21584 -0.8024,0.37034 -2.99348,3.95026 -3.88848,4.84525 1.17273,-1.45049 2.65393,-4.9071 3.24029,-5.30829 0.58637,-0.4012 4.04298,-2.25281 5.30827,-2.25281 1.26535,0 3.47503,-0.21437 4.93765,-1.01849 0.90339,-0.49665 1.49989,-1.04641 2.32682,-1.44335 1.18352,-0.56811 2.68315,-1.27865 3.99314,-1.61928 0.39578,-0.10291 0.7859,0.28536 1.10407,0.34643 1.4483,0.27796 3.53146,0.58033 3.74799,0.71025 -0.21602,-0.86412 -0.64819,-1.66634 -0.64819,-1.66634 -0.91162,-0.13095 -1.70668,-0.22451 -2.41717,-0.29085 -0.39826,-0.0148 -0.81589,-0.0266 -1.23603,-0.0266 z"
       style="fill:#fefdfa;fill-opacity:1;fill-rule:evenodd;stroke:none;stroke-width:0.17457871px;stroke-linecap:butt;stroke-linejoin:miter;stroke-opacity:1"
       id="path3371"
       inkscape:connector-curvature="0" />
    <path
       style="fill:#fefdfa;fill-opacity:1;fill-rule:evenodd;stroke:none;stroke-width:0.17457871px;stroke-linecap:butt;stroke-linejoin:miter;stroke-opacity:1"
       d="m -464.14641,-348.31225 c -1.23286,0.35224 -2.72791,1.02318 -3.90143,1.5845 -0.53055,0.25377 -0.5277,0.56349 0.32189,0.49305 0.87638,-0.0727 1.89849,-0.15242 3.00261,-0.15242 1.28607,0 2.65384,0.20136 3.88813,0.35973 0.68492,0.0629 1.22786,-0.21204 1.76181,-0.53805 -2.21341,-0.48837 -4.58625,-1.48911 -5.07301,-1.74681 z"
       id="path3369"
       inkscape:connector-curvature="0" />
    <path
       style="fill:#fefdfa;fill-opacity:1;fill-rule:evenodd;stroke:none;stroke-width:0.17457871px;stroke-linecap:butt;stroke-linejoin:miter;stroke-opacity:1"
       d="m -464.72334,-345.86406 c -1.14573,0 -2.20207,0.0964 -3.09537,0.16435 -0.76156,0.0579 -0.65334,0.28169 -0.0433,0.37814 2.01552,0.31868 4.91051,0.41504 5.93772,0.0955 0.28423,-0.0884 0.57686,-0.19534 0.86674,-0.30653 -1.16473,-0.18386 -2.471,-0.33143 -3.6658,-0.33143 z"
       id="path3365"
       inkscape:connector-curvature="0" />
    <path
       style="fill:#fefdfa;fill-opacity:1;fill-rule:evenodd;stroke:none;stroke-width:0.17457871px;stroke-linecap:butt;stroke-linejoin:miter;stroke-opacity:1"
       d="m -455.37793,-345.73142 c -1.0377,0.0116 -1.82447,0.18124 -2.50343,0.8139 -1.35789,1.26532 -4.56771,2.40728 -7.40697,2.40728 -2.83924,0 -4.22781,-0.37029 -6.75845,2.71586 -2.53064,3.08614 -2.68483,3.61057 -1.04918,3.61057 1.63566,0 2.71557,-1.04932 5.36966,-2.83929 2.65408,-1.78996 3.63169,0.5937 4.95265,-2.02334 0.28205,-0.5588 0.96546,-0.7822 1.61894,-0.93734 0.88582,-0.21029 2.07461,-0.25481 3.54137,-0.11729 2.74937,0.25775 5.14155,0.25177 6.97189,-0.0164 2.60209,-0.38122 2.63558,-3.47896 -0.72833,-3.47896 -1.68194,0 -2.97042,-0.1466 -4.00815,-0.13502 z"
       id="path3363"
       inkscape:connector-curvature="0" />
    <path
       style="fill:#fefdfa;fill-opacity:1;fill-rule:evenodd;stroke:none;stroke-width:0.17457871px;stroke-linecap:butt;stroke-linejoin:miter;stroke-opacity:1"
       d="m -398.94126,-344.44288 c -0.58178,0.004 -1.14431,0.66899 -1.14431,2.44206 0,0.91653 0.26187,1.83307 1.35299,3.57886 1.09111,1.74575 3.53521,1.57121 3.84073,1.78943 0.30551,0.21822 0.0436,2.79326 1.44027,2.79326 1.39663,0 1.30934,-3.01148 0.56738,-3.92802 -0.74196,-0.91654 -4.45175,-5.06279 -5.10642,-6.06661 -0.24551,-0.37644 -0.60157,-0.61154 -0.95064,-0.60898 z"
       id="path3361"
       inkscape:connector-curvature="0" />
    <path
       style="fill:#fefdfa;fill-opacity:1;fill-rule:evenodd;stroke:none;stroke-width:0.17457871px;stroke-linecap:butt;stroke-linejoin:miter;stroke-opacity:1"
       d="m -384.58556,-341.2142 c 0.002,0.0256 0.004,0.0547 0.005,0.0811 0.23638,2.1239 1.42152,3.62123 2.94841,4.68703 1.58709,1.10784 3.55159,1.5658 4.64816,1.92821 -1.61917,-1.9428 -2.26609,-3.63571 -2.41001,-5.17837 -1.24721,-0.18468 -2.52347,-0.44598 -3.6849,-0.89028 -0.53877,-0.18087 -1.04704,-0.38786 -1.50711,-0.62774 z"
       id="path3359"
       inkscape:connector-curvature="0" />
    <path
       style="fill:#fefdfa;fill-opacity:1;fill-rule:evenodd;stroke:none;stroke-width:0.17457871px;stroke-linecap:butt;stroke-linejoin:miter;stroke-opacity:1"
       d="m -378.51384,-339.57718 c 0.21444,1.90069 1.30409,4.04926 4.6144,6.92143 l -0.0198,0.0229 c 0.39203,0.31458 0.77576,0.63086 1.15386,0.92404 2.53689,1.96713 2.93156,0.43211 2.59207,-0.55545 -0.0178,-0.0518 -0.054,-0.14898 -0.0791,-0.21925 -0.40465,-0.90261 -0.77721,-1.86248 -1.15862,-2.76632 -0.70815,-1.67804 -1.50959,-3.10936 -2.17269,-3.48612 -0.10176,-0.0578 -0.25333,-0.11578 -0.43781,-0.17219 -0.76331,-0.20249 -1.9902,-0.35118 -3.37359,-0.53499 -0.36283,-0.0413 -0.73843,-0.086 -1.11874,-0.134 z"
       id="path3357"
       inkscape:connector-curvature="0" />
    <path
       style="fill:#fefdfa;fill-opacity:1;fill-rule:evenodd;stroke:none;stroke-width:0.17457871px;stroke-linecap:butt;stroke-linejoin:miter;stroke-opacity:1"
       d="m -465.85128,-339.00332 c -0.3998,0 -0.83829,0.19289 -1.45221,0.60693 -1.30967,0.88326 -2.27501,1.52988 -3.09911,2.11165 -0.43655,0.30818 -0.44868,1.04482 0.29766,1.3165 0.32205,-0.63113 1.74254,-1.09482 2.71927,-1.88251 0.49356,-0.39397 3.40701,-2.15257 1.53439,-2.15257 z"
       id="path3355"
       inkscape:connector-curvature="0" />
    <path
       style="fill:#fefdfa;fill-opacity:1;fill-rule:evenodd;stroke:none;stroke-width:0.17457871px;stroke-linecap:butt;stroke-linejoin:miter;stroke-opacity:1"
       d="m -473.8986,-335.35047 c -1.48134,0 -3.33283,2.99356 -5.18452,4.78353 -1.85169,1.78996 -5.09211,3.36376 -5.09211,4.50563 0,0.70981 0.27745,1.17295 1.2033,1.17295 0.92584,0 1.06498,-0.87971 1.46618,-0.87971 0.4012,0 0.3858,0.23152 1.38879,0.23152 1.00301,0 1.38851,-1.04919 3.31735,-3.28665 1.92885,-2.23745 -0.41644,-1.46597 -1.72807,-0.23152 1.2036,-1.26532 3.24028,-2.16043 4.7525,-3.5492 1.5122,-1.38877 1.35793,-2.74655 -0.12342,-2.74655 z"
       id="path3353"
       inkscape:connector-curvature="0" />
    <path
       style="fill:#fefdfa;fill-opacity:1;fill-rule:evenodd;stroke:none;stroke-width:0.17457871px;stroke-linecap:butt;stroke-linejoin:miter;stroke-opacity:1"
       d="m -391.59259,-333.79256 c -0.4556,-0.016 -0.67915,0.34493 -0.24516,1.3431 0.9567,1.54307 1.46586,1.84793 1.9132,1.72806 0.44734,-0.11987 1.08031,-0.80236 0.15447,-1.94424 -0.49186,-0.60662 -1.30616,-1.10876 -1.82251,-1.12692 z"
       id="path3351"
       inkscape:connector-curvature="0" />
    <path
       style="fill:#fefdfa;fill-opacity:1;fill-rule:evenodd;stroke:none;stroke-width:0.17457871px;stroke-linecap:butt;stroke-linejoin:miter;stroke-opacity:1"
       d="m -488.39274,-333.50341 c -0.23959,0.003 -0.4927,0.0356 -0.68945,0.12821 -0.92696,1.20161 -1.61976,2.50154 -2.02368,3.66342 -0.17988,0.51744 -0.0208,0.77028 0.4685,0.64035 0.25195,-0.0669 0.54975,-0.11821 0.88449,-0.23118 0.42567,-0.14366 0.82104,-0.31654 1.20977,-0.43781 0.36248,-0.11307 0.42238,-0.41344 0.20527,-0.81288 -0.2322,-0.36847 -0.33674,-0.75315 -0.18891,-1.15556 0.55551,-1.51222 0.89472,-1.72806 0.89472,-1.72806 0,0 -0.36138,-0.0725 -0.76071,-0.0665 z"
       id="path3349"
       inkscape:connector-curvature="0" />
    <path
       style="fill:#fefdfa;fill-opacity:1;fill-rule:evenodd;stroke:none;stroke-width:0.17457871px;stroke-linecap:butt;stroke-linejoin:miter;stroke-opacity:1"
       d="m -379.12282,-331.24582 c -2.19117,0 -5.86373,0.0308 -5.86373,0.80231 0,0.77154 3.73427,2.77759 6.04887,2.59243 -0.21602,2.25288 0.1849,4.10464 1.07987,4.10464 1.95314,0 0.98409,-2.88639 1.94457,-5.06142 -1.01844,0.0926 -2.93183,-1.51212 -3.20958,-2.43796 z"
       id="path3347"
       inkscape:connector-curvature="0" />
    <path
       style="fill:#fefdfa;fill-opacity:1;fill-rule:evenodd;stroke:none;stroke-width:0.17457871px;stroke-linecap:butt;stroke-linejoin:miter;stroke-opacity:1"
       d="m -370.04984,-329.67189 c -2.49979,1e-5 2.16046,5.40064 3.30233,7.53008 1.14188,2.12944 3.82659,4.1046 5.12278,2.901 1.2962,-1.20359 -2.59207,-3.57988 -2.59207,-3.57988 0,0 0.15403,-1.6e-4 0.95643,-0.15446 -0.70982,-0.0309 -1.66634,-0.92575 -1.66634,-0.92575 0,0 0.15424,-0.0619 0.55544,-0.27789 -1.2036,-0.52464 -4.90704,-5.4931 -5.67857,-5.4931 z"
       id="path3345"
       inkscape:connector-curvature="0" />
    <path
       style="fill:#fefdfa;fill-opacity:1;fill-rule:evenodd;stroke:none;stroke-width:0.17457871px;stroke-linecap:butt;stroke-linejoin:miter;stroke-opacity:1"
       d="m -487.53144,-329.45059 c -0.22369,-0.009 -0.49483,0.0703 -0.72901,0.16162 -0.41322,0.16114 -0.85239,0.33513 -1.32501,0.48248 -1.50054,0.46782 -2.01251,0.39362 -2.02744,1.44914 -0.0192,1.35777 0.30857,2.68478 0.43201,3.05513 0.12345,0.37033 0.58641,0.37051 1.20366,-0.0307 0.61718,-0.4012 3.88846,-2.43803 3.88846,-3.51817 0,-0.45632 -0.56648,-0.91311 -1.10954,-1.47335 -0.0818,-0.0844 -0.19891,-0.12101 -0.33313,-0.12616 z"
       id="path3343"
       inkscape:connector-curvature="0" />
    <path
       style="fill:#fefdfa;fill-opacity:1;fill-rule:evenodd;stroke:none;stroke-width:0.17457871px;stroke-linecap:butt;stroke-linejoin:miter;stroke-opacity:1"
       d="m -375.86721,-328.22138 c -1.13345,9.77997 1.75424,21.35452 5.32909,21.35452 2.61868,0 0.11801,-3.33158 -0.0672,-3.94882 0.52466,0 1.14194,-0.12343 1.14192,-0.12343 -0.86411,0.0309 -1.70759,-1.77613 -1.70759,-1.77613 h 0.65467 c -0.63285,0.0218 -1.68032,-1.44028 -1.68032,-1.44028 l 0.48009,-0.0218 c -0.34915,0.0436 -4.51792,-6.8754 -4.15068,-14.04404 z"
       id="path3341"
       inkscape:connector-curvature="0" />
    <path
       style="fill:#fefdfa;fill-opacity:1;fill-rule:evenodd;stroke:none;stroke-width:0.17457871px;stroke-linecap:butt;stroke-linejoin:miter;stroke-opacity:1"
       d="m -482.231,-323.62301 c -0.48592,0 -0.81396,1.52478 -1.10919,4.66453 -0.0305,0.32408 0.14001,0.46114 0.3577,0.41838 0.62214,-0.12222 1.1019,-0.50238 1.51494,-0.94382 0.2971,-0.31753 0.49802,-0.71704 0.75935,-1.05941 0.23213,-0.30411 0.0644,-0.78398 -0.20424,-0.92779 -0.28687,-0.15359 -0.55321,-0.2772 -0.73241,-0.42383 -0.67896,-0.5555 -0.0615,-1.72806 -0.58615,-1.72806 z"
       id="path3339"
       inkscape:connector-curvature="0" />
    <path
       style="fill:#fefdfa;fill-opacity:1;fill-rule:evenodd;stroke:none;stroke-width:0.17457871px;stroke-linecap:butt;stroke-linejoin:miter;stroke-opacity:1"
       d="m -354.89662,-321.97985 c -0.52346,-0.0145 -0.99819,0.0928 -1.38879,0.3628 1.26533,0.33947 4.47482,3.95013 4.25878,4.38219 0.27775,0.15431 4.19705,0.55554 4.19705,-0.30858 0,-0.7291 -4.24036,-4.35819 -7.06704,-4.43641 z"
       id="path3337"
       inkscape:connector-curvature="0" />
    <path
       style="fill:#fefdfa;fill-opacity:1;fill-rule:evenodd;stroke:none;stroke-width:0.17457871px;stroke-linecap:butt;stroke-linejoin:miter;stroke-opacity:1"
       d="m -479.69654,-320.56106 c -0.11501,-0.0111 -0.23161,0.061 -0.28505,0.15105 -0.27681,0.46661 -0.5708,0.97122 -0.97586,1.40414 -0.49104,0.52477 -1.12167,0.97168 -1.90605,1.15078 -0.31585,0.0721 -0.55146,0.26444 -0.53568,0.58989 0.0719,1.4814 0.0917,2.37591 0.42725,2.37591 0.92584,0 3.88881,-2.25278 3.88881,-4.19705 0,-0.57969 -0.18706,-0.99948 -0.42213,-1.3506 -0.054,-0.0806 -0.12228,-0.11745 -0.19129,-0.12412 z"
       id="path3335"
       inkscape:connector-curvature="0" />
    <path
       style="fill:#fefdfa;fill-opacity:1;fill-rule:evenodd;stroke:none;stroke-width:0.17457871px;stroke-linecap:butt;stroke-linejoin:miter;stroke-opacity:1"
       d="m -364.60244,-309.37643 c -0.45398,0.0139 -0.8343,0.0458 -1.14568,0.15208 -0.76479,0.2612 -0.51689,0.66842 -0.0839,0.93086 0.41199,0.24969 0.80695,0.59694 1.11976,1.06281 0.55742,0.83019 0.82183,1.7797 0.6458,2.73462 -0.14123,0.76612 -0.0641,1.19545 0.3345,1.47641 0.58313,0.41107 1.07195,0.77678 1.44266,0.95371 1.92037,0.91653 4.16807,1.2657 4.16807,0.72013 0,-0.54555 -3.57886,-8.03062 -6.48123,-8.03062 z"
       id="path3333"
       inkscape:connector-curvature="0" />
    <path
       style="fill:#fefdfa;fill-opacity:1;fill-rule:evenodd;stroke:none;stroke-width:0.17457871px;stroke-linecap:butt;stroke-linejoin:miter;stroke-opacity:1"
       d="m -367.64223,-308.41965 c -0.2314,0.0811 -0.47998,0.13434 -0.77912,0.13434 -0.82056,0 0.97937,2.00348 2.91499,3.77356 0.43367,0.39661 0.94712,0.36537 0.97314,-0.40064 0.0241,-0.70876 -0.18926,-1.39386 -0.61443,-2.02709 -0.6763,-1.00726 -1.87351,-1.35952 -2.49458,-1.48017 z"
       id="path3040"
       inkscape:connector-curvature="0" />
    <path
       id="path3040-7"
       d="m -454.32982,-406.17482 c 0.3118,1.21636 0.44635,2.31322 0.53224,3.15736 0.0915,0.89995 0.20619,1.53166 0.35182,1.77328 0.0728,0.12082 0.12252,0.16747 0.25774,0.22424 0.13522,0.0567 0.37917,0.10714 0.77195,0.0928 0.4088,-0.0149 0.67394,-0.24541 0.8454,-0.61472 0.17145,-0.3693 0.1546,-0.82563 0.005,-1.07221 -0.21717,-0.35834 -1.42667,-1.94833 -2.69086,-3.47955 -0.028,-0.034 -0.0453,-0.0472 -0.0734,-0.0812 z"
       style="fill:#fefdfa;fill-opacity:1;fill-rule:evenodd;stroke:none;stroke-width:0.17457871px;stroke-linecap:butt;stroke-linejoin:miter;stroke-opacity:1"
       inkscape:connector-curvature="0" />
    <path
       d="m -447.93248,-341.18701 c -0.19341,0.051 -0.33244,0.14404 -0.53471,0.18826 -2.01883,0.44137 -4.51568,0.56291 -7.35446,0.46576 -1.34612,-0.0461 -2.40023,0.0827 -3.0346,0.26423 -0.009,0.003 -0.008,0.004 -0.0172,0.007 0.17404,0.05 0.27968,0.10152 0.53877,0.14413 0.96178,0.15815 2.48894,0.22992 4.62167,0.10336 2.76086,-0.16383 4.44864,-0.61995 5.78053,-1.17261 z m 3.4954,-4.79946 c -0.54657,-0.0122 -0.50316,0.84455 -1.91185,2.76359 -1.53448,2.0904 -5.7611,2.5314 -11.34762,2.00766 -5.58652,-0.52374 -6.67763,2.0513 2.00766,2.0513 8.68529,0 9.49013,-2.81926 11.37899,-6.03592 0.25228,-0.45768 0.29725,-0.71111 -0.01,-0.77265 -0.0423,-0.008 -0.0812,-0.0132 -0.11764,-0.014 z"
       style="fill:#fefdfa;fill-opacity:1;fill-rule:evenodd;stroke:none;stroke-width:0.17457871px;stroke-linecap:butt;stroke-linejoin:miter;stroke-opacity:1"
       id="path3494"
       inkscape:connector-curvature="0" />
  </g>
</svg>
