<?xml version="1.0" encoding="UTF-8" standalone="no"?>
<svg
   xmlns:dc="http://purl.org/dc/elements/1.1/"
   xmlns:cc="http://web.resource.org/cc/"
   xmlns:rdf="http://www.w3.org/1999/02/22-rdf-syntax-ns#"
   xmlns:svg="http://www.w3.org/2000/svg"
   xmlns="http://www.w3.org/2000/svg"
   xmlns:sodipodi="http://sodipodi.sourceforge.net/DTD/sodipodi-0.dtd"
   xmlns:inkscape="http://www.inkscape.org/namespaces/inkscape"
   version="1.0"
   width="200"
   height="220"
   id="svg2"
   sodipodi:version="0.32"
   inkscape:version="0.45.1"
   sodipodi:docname="Escudo_Harad.svg"
   inkscape:output_extension="org.inkscape.output.svg.inkscape"
   sodipodi:docbase="C:\Documents and Settings\Rondador Nocturno\Escritorio">
  <metadata
     id="metadata3215">
    <rdf:RDF>
      <cc:Work
         rdf:about="">
        <dc:format>image/svg+xml</dc:format>
        <dc:type
           rdf:resource="http://purl.org/dc/dcmitype/StillImage" />
      </cc:Work>
    </rdf:RDF>
  </metadata>
  <sodipodi:namedview
     inkscape:window-height="971"
     inkscape:window-width="1280"
     inkscape:pageshadow="2"
     inkscape:pageopacity="0.0"
     guidetolerance="10.0"
     gridtolerance="10.0"
     objecttolerance="10.0"
     borderopacity="1.0"
     bordercolor="#666666"
     pagecolor="#ffffff"
     id="base"
     inkscape:zoom="2.4491608"
     inkscape:cx="100"
     inkscape:cy="83.029499"
     inkscape:window-x="-4"
     inkscape:window-y="-4"
     inkscape:current-layer="svg2" />
  <defs
     id="defs4" />
  <path
     sodipodi:type="arc"
     style="fill:#dc0000;fill-opacity:1;stroke:none;stroke-opacity:1"
     id="path5140"
     sodipodi:cx="100.03426"
     sodipodi:cy="109.96231"
     sodipodi:rx="100.03426"
     sodipodi:ry="110.03769"
     d="M 200.06853 109.96231 A 100.03426 110.03769 0 1 1  0,109.96231 A 100.03426 110.03769 0 1 1  200.06853 109.96231 z" />
  <path
     style="fill:#000000;fill-opacity:1;stroke:none;stroke-opacity:1"
     d="M 86.9373,27.556651 C 85.585319,27.583933 84.291632,27.706315 83.0373,27.906651 C 81.59181,28.137511 76.995025,28.340919 72.8123,28.356651 C 68.321194,28.373549 64.909406,28.564998 64.4873,28.831651 C 63.503769,29.452981 63.48393,31.250079 64.4123,33.331651 C 65.293362,35.307057 66.443302,35.624757 67.5623,34.156651 C 68.282683,33.211531 68.580298,33.135131 72.9623,33.281651 C 75.507255,33.366746 78.554726,33.696833 79.7623,33.981651 C 82.377776,34.598553 84.995958,36.557735 84.8623,37.806651 C 84.780578,38.57017 84.532584,38.660661 83.2123,38.406651 C 82.361562,38.242982 80.139752,37.914309 78.2373,37.706651 C 75.226504,37.37802 74.233652,37.452425 70.6873,38.356651 C 67.013536,39.293341 65.969365,39.397048 60.0373,39.206651 C 54.401736,39.025773 53.174931,38.861194 51.5373,38.081651 C 49.826849,37.267451 49.650599,37.018775 49.9623,35.681651 C 50.347508,34.028936 49.791243,33.742629 48.5623,34.956651 C 47.537798,35.968739 46.542319,35.9217 44.7373,34.781651 C 42.691018,33.489226 42.22369,34.091906 44.0623,35.656651 C 49.189432,40.020113 59.592564,41.756936 70.8373,40.131651 C 76.263993,39.347294 81.894032,39.626894 83.2623,40.731651 C 83.949733,41.286711 83.864671,41.451038 82.7873,42.131651 C 82.115173,42.556273 79.822235,43.226342 77.6623,43.656651 L 73.7373,44.456651 L 72.5623,43.581651 C 71.274225,42.606696 70.720685,42.720202 69.0873,44.306651 C 66.656059,46.667981 68.099129,49.827391 71.4123,49.356651 C 72.289057,49.232077 74.183978,48.730525 75.6123,48.256651 C 77.953758,47.479829 78.690438,47.458112 83.1373,47.831651 C 89.625384,48.376659 92.607498,47.818013 103.9873,44.131651 C 114.92977,40.586952 119.39706,39.915961 127.5623,40.531651 C 135.82641,41.154793 141.73622,42.999799 146.1123,46.306651 C 148.82066,48.353313 149.61646,49.731124 149.3623,52.081651 C 148.97558,55.658132 145.8443,57.600359 138.8373,58.656651 C 133.65861,59.437343 119.43694,58.871717 99.0123,57.106651 C 79.961778,55.460329 69.948227,55.088849 60.8873,55.631651 C 41.805463,56.774769 32.081491,61.641029 28.9873,71.681651 C 26.462053,79.875986 29.574088,87.580777 37.0373,91.681651 C 43.556699,95.263911 51.359698,96.868937 65.0623,97.331648 C 75.117367,97.671198 80.62448,97.488748 101.8873,96.156651 C 115.30598,95.315977 119.06517,95.227723 128.9373,95.531651 L 140.4123,95.856651 L 143.6123,97.231648 C 147.33682,98.781718 148.75422,100.50408 148.4623,103.23165 C 148.09874,106.62886 144.98654,108.41779 138.1623,109.13165 C 133.76428,109.59175 120.09322,108.875 108.1123,107.53165 C 71.319723,103.40635 56.291129,102.78994 43.2373,105.00665 C 37.140249,106.042 32.820549,107.56269 28.9123,110.03165 C 22.837615,113.86922 19.694958,120.11435 20.1373,127.40665 C 20.551905,134.24308 22.525135,138.13062 27.4873,141.78165 C 33.239282,146.0138 40.526186,147.96356 53.4623,148.73165 C 63.025192,149.29944 71.907518,149.00764 91.2873,147.43165 C 118.71621,145.20112 129.11595,144.96347 135.2373,146.48165 C 141.0902,147.93324 143.41812,150.28132 142.9873,154.30665 C 142.67705,157.20585 141.18262,158.9296 137.8623,160.15665 C 135.12737,161.16736 135.00818,161.1657 124.8123,160.80665 C 116.3769,160.5096 112.26081,160.13613 102.0623,158.73165 C 76.3851,155.19552 64.515487,155.06205 55.1623,158.23165 C 49.270459,160.22828 44.743022,164.75874 43.2123,170.23165 C 41.103563,177.7713 44.097906,182.73628 53.9623,188.08165 C 58.585708,190.58699 59.775802,191.65912 61.0123,194.35665 C 62.253831,197.06516 63.36797,196.7143 64.5873,193.23165 C 66.063013,189.01663 65.776242,187.6925 62.4373,183.60665 C 60.74727,181.53855 60.614913,181.08575 60.7623,178.00665 C 61.023448,172.55139 63.55491,170.30988 70.8623,169.23165 C 76.033142,168.46867 83.79124,169.13152 100.0123,171.70665 C 121.96294,175.19136 129.01402,176.00801 137.7873,176.05665 C 142.26512,176.08149 147.03642,175.85464 149.0623,175.53165 C 162.62005,173.37016 169.71781,166.72226 171.2373,154.80665 C 171.91916,149.45929 171.51208,146.71178 169.3123,143.13165 C 166.56097,138.65409 159.87114,134.9186 151.5873,133.15665 C 138.68491,130.41235 123.09283,130.26 83.6123,132.50665 C 79.800345,132.72356 72.164799,132.85361 66.6373,132.80665 C 58.1497,132.73452 56.108637,132.58738 53.3373,131.90665 C 47.655131,130.51094 45.839317,128.93319 46.1873,125.68165 C 46.446256,123.26196 48.087087,121.84344 51.8873,120.68165 C 55.143419,119.6862 55.18941,119.67117 67.4373,120.10665 C 77.426741,120.46183 82.689237,120.90218 95.5873,122.40665 C 134.27907,126.91976 152.51907,126.02352 163.9873,119.10665 C 170.30164,115.29828 173.0789,110.95791 173.8873,103.53165 C 175.78901,86.061838 160.3007,77.739378 127.0623,78.406651 C 118.49214,78.578699 110.08466,79.109786 88.8873,80.706651 C 77.168756,81.589443 65.412396,81.639769 61.9373,80.831651 C 58.455157,80.021903 56.42166,78.271557 56.6373,76.256651 C 56.872594,74.058041 59.114571,72.755924 63.9873,72.031651 C 67.349563,71.531886 69.586226,71.582305 84.0373,72.381651 C 110.79585,73.861776 131.39374,74.400867 137.7373,73.781651 C 156.95634,71.905605 166.46534,66.751273 169.9873,56.356651 C 171.17636,52.847317 171.26674,52.14689 170.8373,48.606651 C 170.56039,46.323998 169.82762,43.707562 169.0623,42.356651 C 166.20605,37.3146 159.15483,33.306577 149.6623,31.281651 C 142.82268,29.822661 130.6787,29.1805 120.4623,29.731651 C 105.81956,30.521595 104.29286,30.487076 98.3873,29.006651 C 94.777255,28.10166 91.400228,27.617205 88.3123,27.556651 C 87.849106,27.547568 87.387962,27.547556 86.9373,27.556651 z M 91.5873,31.506651 C 91.88527,31.508581 92.155069,31.52744 92.4373,31.556651 C 94.949367,31.816645 95.064533,32.531041 92.6623,33.056651 C 89.969935,33.645731 87.061465,33.515293 87.1373,32.806651 C 87.209918,32.128102 89.501478,31.493113 91.5873,31.506651 z M 116.0123,230.55665 C 115.24651,230.668 114.48277,230.78644 113.7123,230.88165 C 114.48026,230.78651 115.24903,230.66788 116.0123,230.55665 z M 110.5873,231.20665 C 109.85754,231.27554 109.14585,231.32736 108.4123,231.38165 C 109.14537,231.32726 109.8581,231.27564 110.5873,231.20665 z "
     id="rect4143" />
  <g
     transform="translate(99.315938,-128.36218)"
     id="layer2"
     style="display:inline" />
</svg>
