<?xml version="1.0" encoding="UTF-8" standalone="no"?>
<svg
   xmlns:dc="http://purl.org/dc/elements/1.1/"
   xmlns:cc="http://web.resource.org/cc/"
   xmlns:rdf="http://www.w3.org/1999/02/22-rdf-syntax-ns#"
   xmlns:svg="http://www.w3.org/2000/svg"
   xmlns="http://www.w3.org/2000/svg"
   xmlns:xlink="http://www.w3.org/1999/xlink"
   xmlns:sodipodi="http://sodipodi.sourceforge.net/DTD/sodipodi-0.dtd"
   xmlns:inkscape="http://www.inkscape.org/namespaces/inkscape"
   version="1.0" width="612" height="672" viewBox="-2 -2 204 224"
   sodipodi:version="0.32"
   inkscape:version="0.45.1"
   sodipodi:docname="House_of_the_Mole.svg"
   inkscape:output_extension="org.inkscape.output.svg.inkscape"
   sodipodi:docbase="C:\Documents and Settings\Rondador Nocturno\Escritorio">
  <metadata>
    <rdf:RDF>
      <cc:Work rdf:about="">
        <dc:format>image/svg+xml</dc:format>
        <dc:type rdf:resource="http://purl.org/dc/dcmitype/StillImage" />
      </cc:Work>
    </rdf:RDF>
  </metadata>
  <path
     d="M 0.00361,1.513e-006 L 200.00356,0.012953513 L 199.99645,100.37455 C 199.99645,159.42643 148.68957,207.04875 100.1747,220 C 49.67354,206.5185 -0.00356,159.40881 -0.00356,100.37455 L 0.00361,1.513e-006 z "
     style="fill:none;stroke:#000000;stroke-width:3.5"
     sodipodi:nodetypes="cccccc" />
  <path
     d="M 0.00361,1.513e-006 L 200.00356,0.012953513 L 199.99645,100.37455 C 199.99645,159.42643 148.68957,207.04875 100.1747,220 C 49.67354,206.5185 -0.00356,159.40881 -0.00356,100.37455 L 0.00361,1.513e-006 z "
     style="fill:#00ffff;fill-opacity:1;fill-rule:evenodd;stroke:none"
     sodipodi:nodetypes="cccccc" />
  <g
     transform="translate(36.428569,-128.36218)"
     id="layer2"
     style="display:inline" />
  <g
     id="layer1"
     inkscape:label="Calque 1"
     style="fill:#ffffff;fill-opacity:1;stroke:#000000;stroke-width:7.11404657;stroke-miterlimit:4;stroke-dasharray:none;stroke-opacity:1"
     transform="translate(-61.745902,10.622623)">
    <g
       transform="translate(-184.07957,-27.47072)"
       style="opacity:1;fill:#ffffff;fill-opacity:1;stroke:#000000;stroke-width:7.11404657;stroke-miterlimit:4;stroke-dasharray:none;stroke-opacity:1"
       id="g2277">
      <g
         transform="matrix(0.999988,-4.798284e-3,4.798284e-3,0.999988,232.9667,9.002819)"
         id="g2294"
         style="fill:#ffffff;fill-opacity:1;stroke:#000000;stroke-width:7.11404991;stroke-miterlimit:4;stroke-dasharray:none;stroke-opacity:1">
        <path
           d="M 257.18207,992.8739 C 256.37226,993.94244 255.3908,994.90912 254.47177,995.89516 C 253.27728,997.43712 251.83483,998.73868 250.42248,1000.0696 C 248.97961,1001.0914 247.42811,1001.9449 245.91143,1002.8493 C 244.68367,1004.044 243.8705,1003.2193 242.61988,1003.1915 C 241.45754,1002.542 240.43595,1001.681 239.37401,1000.886 L 242.36641,1010.865 C 243.51289,1011.6749 244.58798,1012.6187 245.92331,1013.1154 C 247.46656,1013.1102 248.67219,1013.5796 250.0375,1012.3545 C 251.60004,1011.4009 253.19253,1010.4982 254.69903,1009.4564 C 256.15285,1008.1068 257.65066,1006.8013 258.85477,1005.2073 C 259.80761,1004.2644 260.70995,1003.268 261.81284,1002.4964 L 257.18207,992.8739 z "
           style="opacity:0.01000001;fill:#ffffff;fill-opacity:1;stroke:#000000;stroke-width:7.11404991;stroke-miterlimit:4;stroke-dasharray:none;stroke-opacity:1;display:inline"
           id="path1952" />
        <g
           transform="matrix(-0.795463,-0.606002,-0.606002,0.795463,811.8474,412.0752)"
           style="fill:#ffffff;fill-opacity:1;stroke:#000000;stroke-width:7.11405039;stroke-miterlimit:4;stroke-dasharray:none;stroke-opacity:1"
           id="g7438" />
        <g
           transform="matrix(-0.795463,-0.606002,-0.606002,0.795463,742.6738,519.8756)"
           style="fill:#ffffff;fill-opacity:1;stroke:#000000;stroke-width:7.11405039;stroke-miterlimit:4;stroke-dasharray:none;stroke-opacity:1;display:inline"
           id="g7442">
          <g
             transform="matrix(-3.191847e-2,-0.99949,0.99949,-3.191847e-2,-545.3843,867.0029)"
             style="fill:#ffffff;fill-opacity:1;stroke:#000000;stroke-width:7.1140542;stroke-miterlimit:4;stroke-dasharray:none;stroke-opacity:1"
             id="g7454" />
        </g>
        <g
           transform="matrix(0.779176,0.626804,0.626804,-0.779176,-458.3038,1366.039)"
           style="fill:#ffffff;fill-opacity:1;stroke:#000000;stroke-width:7.11405516;stroke-miterlimit:4;stroke-dasharray:none;stroke-opacity:1;display:inline"
           id="g7448" />
      </g>
    </g>
  </g>
  <path
     style="color:#000000;fill:#ffdc50;fill-opacity:1;fill-rule:nonzero;stroke:#000000;stroke-width:1.8;stroke-linecap:butt;stroke-linejoin:miter;marker:none;marker-start:none;marker-mid:none;marker-end:none;stroke-miterlimit:4;stroke-dasharray:none;stroke-dashoffset:0;stroke-opacity:1;visibility:visible;display:inline;overflow:visible"
     d="M 51.711535,35.785327 C 50.001225,42.474173 51.886435,47.980519 55.155285,53.168928 C 57.682985,57.180982 59.343795,61.456588 59.264785,66.050376 C 58.114955,66.69875 57.018515,67.397618 55.960135,68.149689 L 29.542875,50.60307 L 47.278075,76.728876 C 46.959425,77.168827 46.648965,77.626105 46.350075,78.078559 C 41.319755,75.812498 36.597655,75.363165 32.097945,76.233598 C 25.736945,77.464069 20.336507,76.131854 14.697274,72.770867 C 18.217634,78.709967 23.469764,81.269121 29.449925,82.626478 C 34.083485,83.678177 38.271775,85.523677 41.468025,88.840517 C 41.120245,90.090345 40.833015,91.354476 40.614605,92.637732 L 9.5197059,98.943284 L 40.544515,104.87633 C 40.629785,105.41009 40.732535,105.9423 40.841535,106.47517 C 35.680775,108.42774 32.011605,111.4415 29.444745,115.23966 C 25.816905,120.60763 21.081705,123.48566 14.717598,125.09662 C 21.406437,126.80695 26.903555,124.89946 32.091965,121.63062 C 36.104025,119.10292 40.379625,117.4421 44.973405,117.52112 C 45.621775,118.67094 46.320645,119.76739 47.072725,120.82577 L 29.535335,147.26529 L 55.674195,129.49859 C 56.110735,129.81455 56.552745,130.13929 57.001605,130.43582 C 54.735545,135.46613 54.295415,140.21049 55.165865,144.71022 C 56.396315,151.07123 55.054915,156.44943 51.693895,162.08862 C 57.633035,158.56831 60.192185,153.31616 61.549525,147.33597 C 62.601225,142.7024 64.446735,138.51411 67.763565,135.31787 C 69.015915,135.66664 70.274855,135.95241 71.560785,136.17126 L 77.866335,167.2662 L 83.799375,136.24137 C 84.333155,136.15611 84.865345,136.05336 85.398225,135.94436 C 87.349695,141.10666 90.365435,144.77488 94.162705,147.34117 C 99.530675,150.96899 102.40872,155.70421 104.01967,162.0683 C 105.73,155.37948 103.82251,149.88234 100.55367,144.69394 C 98.021055,140.67404 96.378815,136.41142 96.466455,131.80325 C 97.608745,131.15817 98.696865,130.46067 99.748825,129.71316 L 126.18833,147.25056 L 108.44391,121.10249 C 108.75569,120.67123 109.06605,120.22754 109.35887,119.7843 C 114.39062,122.0569 119.13125,122.4909 123.63326,121.62004 C 129.99426,120.38952 135.37246,121.73103 141.01167,125.092 C 137.49132,119.15289 132.24842,116.616 126.26823,115.25865 C 121.63988,114.20814 117.45635,112.3271 114.26319,109.01311 C 114.61012,107.76543 114.87631,106.50611 115.09432,105.22512 L 146.19846,98.94184 L 115.16442,92.986525 C 115.07916,92.452761 114.9764,91.920556 114.8674,91.38768 C 120.0329,89.436907 123.69697,86.421863 126.26421,82.623204 C 129.89203,77.255236 134.63647,74.399458 141.00057,72.788513 C 134.31172,71.078185 128.80538,72.963391 123.61699,76.232224 C 119.59712,78.764847 115.33448,80.407104 110.72631,80.319461 C 110.08122,79.177168 109.38371,78.089036 108.63621,77.03709 L 126.18284,50.619842 L 100.02555,68.341996 C 99.594275,68.030215 99.150585,67.719855 98.707365,67.42703 C 100.9769,62.398172 101.42274,57.674616 100.5523,53.174904 C 99.321815,46.813902 100.65407,41.413455 104.01505,35.774231 C 98.075945,39.29459 95.539045,44.537493 94.181705,50.517665 C 93.128825,55.156426 91.251125,59.358318 87.923135,62.55421 C 86.679265,62.20876 85.425105,61.908909 84.148185,61.691582 L 77.864885,30.587442 L 71.909575,61.621483 C 71.375805,61.706748 70.843605,61.809496 70.310725,61.918499 C 68.358505,56.756375 65.344965,53.088982 61.546245,50.521696 C 56.178275,46.893863 53.322495,42.149449 51.711535,35.785327 z "
     id="path2140" />
  <path
     id="path2895"
     d="M 187.14932,93.24521 L 187.07249,92.349522 L 186.97962,91.469776 L 186.87075,90.589964 L 186.76187,89.710168 L 186.65296,88.846344 L 186.54404,87.982521 L 186.41911,87.118648 L 186.27816,86.270716 L 186.15326,85.406843 L 186.0123,84.55891 L 185.87133,83.710961 L 185.73032,82.879018 L 185.57338,82.03102 L 185.41637,81.199011 L 185.25936,80.367018 L 185.00709,79.342807 L 184.75477,78.334585 L 184.48645,77.326298 L 184.21815,76.318026 L 183.93378,75.325678 L 183.64941,74.333331 L 183.34902,73.356923 L 183.03263,72.380466 L 182.73222,71.404058 L 182.41575,70.443574 L 182.08338,69.467051 L 181.75094,68.506517 L 181.41844,67.561973 L 181.07002,66.60139 L 180.7056,65.640758 L 180.35711,64.696147 L 179.91303,63.655288 L 179.46887,62.630401 L 179.00869,61.621472 L 178.5325,60.61246 L 178.05628,59.619454 L 177.56407,58.626381 L 177.05573,57.665238 L 176.53147,56.688056 L 175.99113,55.742788 L 175.45077,54.797536 L 174.89436,53.868191 L 174.33796,52.938861 L 173.76552,52.025473 L 173.17708,51.112019 L 172.57261,50.214504 L 171.96811,49.316972 L 171.3476,48.435398 L 170.72707,47.553807 L 170.09051,46.688156 L 169.45393,45.822505 L 168.80137,44.956805 L 168.13277,44.107028 L 167.46411,43.27324 L 166.77946,42.439404 L 166.0948,41.605567 L 165.39416,40.771664 L 164.69349,39.953767 L 163.99278,39.135854 L 163.26004,38.333831 L 162.54333,37.531858 L 161.8106,36.729835 L 161.06187,35.927746 L 159.91426,34.884433 L 158.76653,33.873099 L 157.61868,32.893744 L 156.4548,31.930329 L 155.29087,30.982903 L 154.12683,30.067439 L 152.94671,29.167932 L 151.78257,28.284448 L 150.60242,27.400913 L 149.40617,26.549309 L 148.20985,25.713694 L 147.01349,24.894068 L 145.80114,24.074376 L 144.57275,23.270624 L 143.34436,22.466889 L 142.11596,21.663137 L 141.12623,21.195986 L 140.15255,20.712928 L 139.16278,20.261767 L 138.18904,19.794682 L 137.19927,19.343537 L 136.22546,18.892442 L 135.25163,18.457335 L 134.26178,18.022179 L 133.28789,17.603062 L 132.314,17.183946 L 131.34004,16.780819 L 130.35009,16.377642 L 129.37608,15.990504 L 128.402,15.619354 L 127.428,15.232216 L 126.45387,14.877075 L 125.30386,14.52129 L 124.15375,14.197515 L 123.00363,13.873711 L 121.85346,13.56591 L 120.70323,13.274115 L 119.55295,12.998278 L 118.40262,12.738445 L 117.25227,12.478613 L 116.08583,12.250711 L 114.93538,12.022858 L 113.78482,11.826983 L 112.61827,11.631043 L 111.46766,11.451175 L 110.301,11.287213 L 109.15027,11.139307 L 107.98354,10.991352 L 106.8327,10.875424 L 105.66582,10.775421 L 104.49894,10.675433 L 103.33195,10.607409 L 102.18095,10.539449 L 101.01383,10.50342 L 99.846725,10.467389 L 98.679525,10.463322 L 97.512295,10.459272 L 96.345025,10.471194 L 95.177685,10.499122 L 94.010305,10.543039 L 92.858815,10.618985 L 91.691305,10.694865 L 90.523745,10.786751 L 89.340165,10.89456 L 88.620245,11.003982 L 87.900405,11.097415 L 87.180495,11.206838 L 86.460645,11.300288 L 85.740735,11.409711 L 85.020895,11.503145 L 84.284985,11.612501 L 83.565085,11.72194 L 81.693055,12.083193 L 79.820925,12.476424 L 77.964675,12.901683 L 76.124345,13.342997 L 75.212115,13.579676 L 74.299835,13.832329 L 73.387605,14.069007 L 72.475285,14.337666 L 71.578935,14.606358 L 70.682595,14.875065 L 69.786195,15.159762 L 68.889735,15.460449 L 68.009265,15.7612 L 67.112745,16.077878 L 66.232225,16.394604 L 65.367645,16.727383 L 64.487075,17.060098 L 63.622425,17.408868 L 62.757715,17.773628 L 61.892975,18.15436 L 61.028265,18.51912 L 60.179435,18.915907 L 59.314655,19.312645 L 58.465765,19.725423 L 57.632805,20.154254 L 56.783895,20.583021 L 55.950895,21.027826 L 55.117825,21.488637 L 54.332645,21.981575 L 53.547445,22.474529 L 52.778225,22.967533 L 52.009015,23.460537 L 51.255815,23.953591 L 50.502565,24.446661 L 49.749315,24.955703 L 48.996025,25.464746 L 48.242815,25.957816 L 47.489545,26.466859 L 46.752195,26.991957 L 45.998915,27.501 L 45.261635,28.010108 L 44.508315,28.53514 L 43.754985,29.060173 L 43.001645,29.585221 L 41.927085,30.524875 L 40.852515,31.464512 L 39.809825,32.436259 L 38.783065,33.424046 L 37.772235,34.427871 L 36.777335,35.447751 L 35.798375,36.483671 L 34.835435,37.519656 L 33.872335,38.587603 L 32.941175,39.671655 L 32.026015,40.755773 L 31.110775,41.855881 L 30.211485,42.972027 L 29.328135,44.104212 L 28.460715,45.252452 L 27.609275,46.400742 L 27.336015,46.815512 L 26.853725,47.565351 L 26.226745,48.53853 L 25.551421,49.623489 L 24.892084,50.708479 L 24.345167,51.649977 L 24.135922,52.048988 L 23.974908,52.368216 L 23.926495,52.495966 L 23.894187,52.591788 L 23.877917,52.671686 L 23.877753,52.719653 L 24.631973,51.938774 L 25.386192,51.157911 L 26.124375,50.392973 L 26.878525,49.628099 L 27.632695,48.863226 L 28.386795,48.114326 L 29.140915,47.365442 L 29.911015,46.616607 L 30.681055,45.883762 L 31.451035,45.166907 L 32.237065,44.434111 L 33.039045,43.71737 L 33.840945,43.01662 L 34.658895,42.299929 L 35.476815,41.599227 L 36.326685,40.898641 L 37.320405,40.214538 L 38.169845,39.641867 L 38.923115,39.132824 L 39.740455,38.592016 L 40.701995,37.971756 L 41.919885,37.192507 L 43.506325,36.190674 L 45.557575,34.870667 L 46.646675,34.346804 L 47.735785,33.822925 L 48.808785,33.330974 L 49.897785,32.83909 L 50.986715,32.363179 L 52.059625,31.903224 L 53.148455,31.459292 L 54.253275,31.015425 L 55.342025,30.587482 L 56.446745,30.175594 L 57.551385,29.779696 L 58.672025,29.383863 L 59.792675,28.988014 L 60.929175,28.62421 L 62.081755,28.244449 L 63.234265,27.880711 L 64.610225,27.629656 L 65.730255,27.40969 L 66.674235,27.237084 L 67.570145,27.096291 L 68.546045,26.939789 L 69.681885,26.767858 L 71.137695,26.549062 L 72.993445,26.267708 L 73.985055,26.191202 L 74.992675,26.114746 L 76.000265,26.038306 L 77.023755,25.993895 L 78.031235,25.949434 L 79.054605,25.937002 L 80.077965,25.924569 L 81.101355,25.912137 L 82.124605,25.931683 L 83.163795,25.967268 L 84.187005,26.002804 L 85.226135,26.054395 L 86.281205,26.122008 L 87.320165,26.221567 L 88.359205,26.30512 L 89.414105,26.420718 L 91.028025,26.714143 L 92.274465,26.926336 L 93.281125,27.121716 L 94.143995,27.284607 L 94.942895,27.447284 L 95.805705,27.626165 L 96.828245,27.853573 L 98.106425,28.129839 L 99.096885,28.389111 L 100.10326,28.664439 L 101.12558,28.955805 L 102.14778,29.27915 L 103.18597,29.602561 L 104.24008,29.941994 L 105.31016,30.297483 L 106.3962,30.653037 L 107.49795,31.088588 L 108.58367,31.540062 L 109.66933,32.007542 L 110.72296,32.490897 L 111.77657,32.974235 L 112.8301,33.489568 L 113.86762,34.004835 L 114.90504,34.552098 L 115.94246,35.099344 L 116.96377,35.678519 L 118.00108,36.257761 L 119.02232,36.852925 L 120.05946,37.480119 L 121.0806,38.107262 L 122.11763,38.766434 L 123.17063,39.425672 L 123.92019,39.98792 L 124.66974,40.550151 L 125.40326,41.128338 L 126.15275,41.706558 L 126.88626,42.284746 L 127.61965,42.894896 L 128.3531,43.489056 L 129.07044,44.115146 L 129.80378,44.741285 L 130.52114,45.367375 L 131.25442,46.009504 L 131.97166,46.667573 L 132.70489,47.325707 L 133.42212,47.983776 L 134.13931,48.657817 L 134.87243,49.347931 L 135.52537,50.101705 L 136.17826,50.87147 L 136.81522,51.625194 L 137.46811,52.394975 L 138.12107,53.14875 L 138.77396,53.918529 L 139.44284,54.688343 L 140.09573,55.458124 L 140.60489,56.179425 L 141.09806,56.900662 L 141.59117,57.637903 L 142.08428,58.375145 L 142.59344,59.096446 L 143.08655,59.833672 L 143.57967,60.570913 L 144.08876,61.308205 L 144.7401,62.525673 L 145.37544,63.74309 L 145.97881,64.960409 L 146.58217,66.177712 L 147.16955,67.394966 L 147.72497,68.612103 L 148.28029,69.845231 L 148.80361,71.094232 L 149.32691,72.343251 L 149.83418,73.608192 L 150.32542,74.889058 L 150.8006,76.185879 L 151.25973,77.498607 L 151.70276,78.843282 L 152.12974,80.203881 L 152.55667,81.580468 L 152.68208,82.300435 L 152.7915,83.020354 L 152.91686,83.756311 L 153.02623,84.492202 L 153.15154,85.244149 L 153.26079,86.012036 L 153.37009,86.763934 L 153.4953,87.547842 L 153.60455,88.315729 L 153.71375,89.099606 L 153.82295,89.883481 L 153.93215,90.667341 L 154.05734,91.451266 L 154.16655,92.235143 L 154.27575,93.019003 L 154.36897,93.802813 L 154.36619,94.6023 L 154.36335,95.41776 L 154.36057,96.217213 L 154.35774,97.032673 L 154.3549,97.848133 L 154.35207,98.663593 L 154.34922,99.479052 L 154.3464,100.29453 L 154.29515,101.23772 L 154.21188,102.19681 L 154.12865,103.13992 L 154.02942,104.08295 L 153.93016,105.04198 L 153.81491,106.00095 L 153.69968,106.94395 L 153.56844,107.90287 L 153.4212,108.86173 L 153.27396,109.8206 L 153.12674,110.77947 L 152.96349,111.73828 L 152.78423,112.71302 L 152.60501,113.67178 L 152.40975,114.64645 L 152.21449,115.62113 L 151.84251,116.83506 L 151.45449,118.06491 L 151.05047,119.29471 L 150.61443,120.54037 L 150.19443,121.77011 L 149.75844,122.99979 L 149.30645,124.22943 L 148.85448,125.45905 L 148.40344,126.41686 L 147.92048,127.35858 L 147.43754,128.30027 L 146.93859,129.24193 L 146.42365,130.18353 L 145.89277,131.10907 L 145.36185,132.05062 L 144.81499,132.97611 L 144.25214,133.90155 L 143.68929,134.827 L 143.11051,135.73638 L 142.53174,136.64579 L 141.95293,137.55517 L 141.35817,138.46451 L 140.77938,139.37392 L 140.16862,140.28319 L 139.42979,141.24 L 138.64298,142.19665 L 137.85623,143.13731 L 137.05347,144.0779 L 136.2348,145.00245 L 135.41612,145.927 L 134.5975,146.83555 L 133.77888,147.74412 L 132.75229,148.68393 L 131.7257,149.62375 L 130.68318,150.54753 L 129.60866,151.47119 L 128.53427,152.36286 L 127.45988,153.25455 L 126.35356,154.13013 L 125.24735,154.97373 L 124.12516,155.81728 L 123.00307,156.62886 L 121.86505,157.42438 L 120.71115,158.18787 L 119.54133,158.93532 L 118.37161,159.65077 L 117.20199,160.33427 L 116.00046,161.00166 L 115.10362,161.41427 L 114.20684,161.81089 L 113.31,162.2235 L 112.41314,162.63612 L 111.5163,163.04873 L 110.61947,163.46134 L 109.72256,163.88994 L 108.80972,164.30249 L 108.02524,164.58758 L 107.22478,164.87261 L 106.44031,165.1577 L 105.63985,165.44273 L 104.83943,165.71176 L 104.05501,165.98087 L 103.2546,166.2499 L 102.4542,166.51894 L 101.65384,166.77201 L 100.8535,167.02505 L 100.05314,167.2781 L 99.268835,167.51522 L 98.468595,167.73629 L 97.668305,167.97335 L 96.868105,168.17843 L 96.067925,168.38353 L 94.659975,168.63447 L 93.268125,168.85348 L 91.876335,169.0565 L 90.500645,169.22761 L 89.109025,169.38266 L 87.733445,169.52179 L 86.357975,169.62894 L 84.982505,169.73609 L 83.607155,169.81124 L 82.247835,169.87048 L 80.872645,169.89768 L 79.513455,169.92493 L 78.138315,169.93615 L 76.779235,169.93142 L 75.404255,169.89467 L 74.045295,169.85796 L 72.814615,169.70977 L 71.600035,169.52966 L 70.385505,169.33357 L 69.186975,169.13752 L 68.004555,168.90956 L 66.822125,168.6816 L 65.639745,168.43764 L 64.473435,168.17776 L 63.307155,167.90187 L 62.156925,167.61006 L 61.006695,167.31825 L 59.856525,167.01046 L 58.706405,166.68666 L 57.572275,166.36293 L 56.438215,166.0232 L 55.304195,165.66748 L 54.393915,165.34453 L 53.499695,165.00565 L 52.621495,164.65083 L 51.727325,164.29594 L 50.849185,163.92513 L 49.955105,163.53827 L 49.077045,163.15146 L 48.215025,162.74873 L 47.336995,162.34594 L 46.475025,161.92721 L 45.613085,161.4925 L 44.767215,161.04185 L 43.905305,160.60714 L 43.075465,160.14055 L 42.229655,159.67391 L 41.399875,159.19135 L 40.570085,158.70876 L 39.756315,158.22625 L 38.942635,157.71176 L 38.128915,157.21325 L 37.331215,156.69881 L 36.533595,156.16838 L 35.751935,155.63801 L 34.970355,155.09164 L 34.204765,154.54533 L 33.439165,153.99902 L 32.689605,153.43679 L 31.940065,152.87454 L 31.206565,152.29637 L 30.473045,151.7182 L 29.755535,151.14008 L 29.038085,150.54597 L 28.528205,150.03253 L 27.747335,149.27831 L 26.807185,148.34763 L 25.803255,147.36878 L 24.8152,146.42195 L 23.938516,145.63542 L 23.587869,145.3144 L 23.284894,145.07352 L 23.157258,144.99311 L 23.045563,144.92878 L 22.96578,144.88053 L 22.917861,144.86438 L 23.346973,145.61738 L 23.792157,146.33845 L 24.237309,147.07552 L 24.698498,147.79666 L 25.159738,148.50181 L 25.636966,149.20701 L 26.130205,149.91227 L 26.607475,150.60148 L 27.116755,151.2908 L 27.610085,151.96408 L 28.135395,152.63747 L 28.644725,153.3108 L 29.170035,153.98418 L 29.711385,154.64164 L 30.252805,155.28311 L 30.810145,155.94062 L 31.367545,156.58214 L 31.924955,157.22366 L 32.498395,157.84926 L 33.087835,158.47488 L 33.677265,159.10053 L 34.266705,159.72617 L 34.872185,160.3359 L 35.477675,160.9456 L 36.720615,162.16513 L 37.995635,163.35279 L 39.302645,164.54057 L 40.641685,165.71246 L 41.439155,166.29086 L 42.252595,166.86931 L 43.066055,167.44776 L 43.895495,168.02628 L 44.724885,168.62078 L 45.554325,169.19928 L 46.399705,169.79384 L 47.245135,170.3724 L 48.090565,170.95096 L 48.952035,171.51361 L 49.813475,172.09222 L 50.690975,172.63892 L 51.568445,173.2016 L 52.445975,173.7483 L 53.339535,174.27906 L 54.233145,174.79384 L 55.111115,175.21262 L 55.989135,175.6154 L 56.867095,176.03419 L 57.745135,176.43699 L 58.623085,176.85577 L 59.517045,177.2746 L 60.395005,177.69338 L 61.272985,178.11217 L 62.821825,178.72515 L 64.370785,179.30615 L 65.935795,179.87124 L 67.500855,180.42033 L 69.081955,180.95347 L 70.679165,181.45472 L 72.276425,181.93995 L 73.889735,182.40925 L 75.503145,182.84659 L 77.132655,183.25198 L 78.762185,183.6574 L 80.407865,184.01489 L 82.069525,184.37242 L 83.731355,184.68201 L 85.409215,184.97565 L 87.103145,185.25336 L 88.302115,185.3215 L 89.517035,185.40566 L 90.731985,185.47384 L 91.947005,185.52604 L 93.145975,185.59416 L 94.361065,185.63037 L 95.576075,185.68255 L 96.791195,185.70278 L 97.990285,185.73891 L 99.205465,185.74314 L 100.4206,185.76336 L 101.63584,185.75159 L 102.83509,185.73978 L 104.05039,185.71202 L 105.26568,185.68426 L 106.48109,185.62452 L 108.64057,185.36021 L 110.2882,185.15808 L 111.53599,184.98653 L 112.47981,184.86189 L 113.24767,184.75263 L 113.90356,184.65896 L 114.59149,184.54945 L 115.39141,184.4243 L 116.60769,184.10873 L 117.82398,183.79317 L 119.02425,183.49354 L 120.24054,183.17798 L 121.45678,182.87842 L 122.67307,182.56284 L 123.87334,182.26321 L 125.08957,181.96365 L 125.6819,181.75784 L 126.25823,181.55197 L 126.83456,181.34612 L 127.42691,181.14031 L 128.00322,180.93444 L 128.59557,180.72863 L 129.17195,180.50678 L 129.76428,180.30097 L 131.33362,179.61888 L 132.90296,178.93679 L 134.45643,178.22264 L 135.99394,177.49247 L 137.53148,176.76229 L 139.06911,176.00014 L 140.57489,175.20591 L 142.08066,174.41166 L 143.5706,173.56939 L 145.06055,172.72712 L 146.51869,171.83677 L 147.97689,170.93043 L 148.69806,170.45324 L 149.41926,169.97606 L 150.14044,169.49888 L 150.86169,169.00571 L 151.56699,168.49649 L 152.27229,167.98728 L 152.97765,167.46207 L 153.68301,166.93687 L 154.88588,165.88574 L 156.08881,164.81861 L 157.27579,163.73545 L 158.47877,162.65234 L 159.66576,161.56917 L 160.83681,160.46995 L 161.99186,159.37069 L 163.13094,158.27137 L 164.25453,157.02808 L 165.34625,155.75272 L 166.42196,154.47729 L 167.46572,153.20174 L 168.49361,151.89417 L 169.48942,150.60248 L 170.4694,149.27875 L 171.43341,147.93897 L 172.34953,146.58303 L 173.26565,145.22711 L 174.1499,143.83908 L 175.01821,142.43502 L 175.85459,141.01485 L 176.67507,139.57863 L 177.46364,138.11034 L 178.23629,136.62599 L 178.6714,135.65214 L 179.09046,134.69422 L 179.50952,133.73631 L 179.91259,132.77833 L 180.29965,131.8203 L 180.68668,130.87826 L 181.07377,129.92022 L 181.44484,128.96214 L 181.81593,128.00405 L 182.17104,127.0459 L 182.51015,126.08771 L 182.84925,125.12951 L 183.17243,124.15528 L 183.49554,123.19702 L 183.80273,122.22273 L 184.09398,121.23238 L 184.25605,120.60935 L 184.40211,119.98626 L 184.56418,119.36323 L 184.71026,118.74014 L 184.87232,118.11711 L 185.03432,117.51007 L 185.19638,116.88705 L 185.35842,116.26402 L 185.57119,114.85766 L 185.76795,113.45127 L 185.94872,112.04481 L 186.1135,110.6383 L 186.27824,109.24778 L 186.41094,107.87313 L 186.54369,106.48249 L 186.66039,105.10779 L 186.7611,103.73304 L 186.86181,102.35828 L 186.94656,100.98347 L 187.01522,99.624587 L 187.08397,98.249728 L 187.13672,96.874805 L 187.18945,95.499881 L 187.24221,94.124956 L 187.14932,93.24521 z "
     style="fill:#dcdcdc;fill-opacity:1;fill-rule:evenodd;stroke:#000000;stroke-width:1.8;stroke-miterlimit:4;stroke-dasharray:none;stroke-opacity:1" />
  <g
     transform="matrix(0.4541156,0,0,0.4541156,75.248225,58.381753)"
     id="g6495"
     style="fill:#ff0000;fill-opacity:1;stroke:#000000;stroke-width:3.96374846;stroke-miterlimit:4;stroke-dasharray:none;stroke-opacity:1">
    <g
       id="g6497"
       inkscape:label="Fond écu"
       style="opacity:1;fill:#ff0000;fill-opacity:1;stroke:#000000;stroke-width:3.96374846;stroke-miterlimit:4;stroke-dasharray:none;stroke-opacity:1;display:inline"
       transform="translate(-193.2444,-191.3928)">
      <path
         id="path6499"
         style="fill:#ff0000;fill-opacity:1;stroke:#000000;stroke-width:3.96374846;stroke-miterlimit:4;stroke-dasharray:none;stroke-opacity:1"
         d="M 300.48116,400.66775 C 312.89655,334.30036 404.40046,326.90453 405.97676,262.58688 C 407.552,198.31206 328.62077,162.77335 300.48116,227.10704 C 272.34154,162.77335 193.41031,198.31206 194.98555,262.58688 C 196.56185,326.90453 288.06577,334.30036 300.48116,400.66775 z "
         sodipodi:nodetypes="cscsc" />
    </g>
    <g
       id="g6501"
       inkscape:label="Meubles"
       transform="translate(-193.2444,-191.3928)"
       style="fill:#ff0000;fill-opacity:1;stroke:#000000;stroke-width:3.96374846;stroke-miterlimit:4;stroke-dasharray:none;stroke-opacity:1" />
  </g>
</svg>
